<?xml version="1.0" encoding="UTF-8" standalone="no"?>
<svg
   data-name="Ebene 1"
   viewBox="0 0 65.860893 80.920723"
   x="0px"
   y="0px"
   version="1.1"
   id="svg4"
   sodipodi:docname="brain.svg"
   width="65.860893"
   height="80.920723"
   inkscape:version="1.2.1 (9c6d41e410, 2022-07-14, custom)"
   xmlns:inkscape="http://www.inkscape.org/namespaces/inkscape"
   xmlns:sodipodi="http://sodipodi.sourceforge.net/DTD/sodipodi-0.dtd"
   xmlns="http://www.w3.org/2000/svg"
   xmlns:svg="http://www.w3.org/2000/svg">
  <defs
     id="defs8" />
  <sodipodi:namedview
     id="namedview6"
     pagecolor="#ffffff"
     bordercolor="#666666"
     borderopacity="1.0"
     inkscape:showpageshadow="2"
     inkscape:pageopacity="0.0"
     inkscape:pagecheckerboard="0"
     inkscape:deskcolor="#d1d1d1"
     showgrid="false"
     inkscape:zoom="4.9229516"
     inkscape:cx="66.626695"
     inkscape:cy="33.821173"
     inkscape:window-width="1920"
     inkscape:window-height="1080"
     inkscape:window-x="0"
     inkscape:window-y="0"
     inkscape:window-maximized="1"
     inkscape:current-layer="svg4" />
  <g
     id="g5235"
     transform="translate(70.331145,-12.232174)"
     style="fill:none;stroke:#ffffff;stroke-width:5;stroke-dasharray:none;stroke-opacity:1">
    <path
       style="fill:none;fill-opacity:1;stroke:#ffffff;stroke-width:5;stroke-dasharray:none;stroke-opacity:1"
       d="m -38.626902,13.732579 c -2.05449,0.0091 -4.03633,0.171484 -5.939453,0.490234 a 21,21 0 0 0 -11.070313,5.130859 21.42,21.42 0 0 0 -5.339843,8.660157 l -0.238281,0.689453 c -0.25,0.739999 -0.521016,1.470938 -0.791016,2.210937 a 37.65,37.65 0 0 0 -1.419922,4.539063 10.87,10.87 0 0 0 -0.109375,4.5 c 0.12,0.609999 0.258438,1.129375 0.398437,1.609375 a 3.56,3.56 0 0 1 -0.128906,3.210937 23.33,23.33 0 0 1 -2.939453,4.529297 c -0.16,0.2 -0.351016,0.401328 -0.541015,0.611328 -0.999999,1.119999 -2.47,2.659455 -2,4.689453 a 4.81,4.81 0 0 0 2.810546,3.509766 l 0.220704,0.08008 a 2.72,2.72 0 0 1 0.599609,0.259766 0.55,0.55 0 0 1 0,0.121094 c 0,0.419999 -0.07109,0.998281 -0.121094,1.488281 -0.13,1.139999 -0.209843,1.83086 0.160156,2.380859 a 12.46,12.46 0 0 0 1,1.179688 2.5,2.5 0 0 0 -0.529297,1.779296 4.08,4.08 0 0 0 1.179688,1.890624 6.83,6.83 0 0 1 0.650391,0.830078 8.26,8.26 0 0 1 -0.28125,0.939453 8.61,8.61 0 0 0 -0.589844,3.111328 c 0.19,2.739997 2.370707,4.569688 6.470703,5.429687 a 31.37,31.37 0 0 0 7.279297,0.458985 h 1.5 a 16.38,16.38 0 0 1 0.970703,3.201172 c 0.12,0.549999 0.24086,1.099844 0.380859,1.589843 0.6,2.199998 1.779297,6.708985 1.779297,6.708985 l 0.390625,1.460937 30,-14.279297 -0.361328,-1.060547 c 0,-0.06 -2.328592,-7.000395 -0.558594,-11.65039 a 39.68,39.68 0 0 1 3.59961,-6.289063 c 2.7699971,-4.249995 5.7686721,-9.050473 6.1386721,-13.730468 0.459999,-6.779994 -0.370018,-23.111334 -18.0000001,-28.111329 -5.17687,-1.464373 -10.050435,-2.189982 -14.570313,-2.169921 z"
       id="path2" />
    <path
       style="fill:none;stroke:#ffffff;stroke-width:5;stroke-dasharray:none;stroke-opacity:1"
       d="m -49.722698,27.685244 c 0.04452,0.08634 0.110705,0.152763 0.132847,0.311031 0.110706,0.677878 0.110706,3.588173 1.299523,5.109706 0.584457,0.74429 1.762216,1.673218 2.63735,2.162035 0.994016,0.555228 2.114219,1.166916 2.942417,1.970319 0.431695,0.417988 0.85233,0.979408 1.031651,1.495011 0.08856,0.261652 0.177129,0.810484 0.19927,1.032535 0.06642,0.516686 0.08857,0.549898 0.08857,0.825983 -0.0082,0.181523 -0.154988,0.41998 -0.34313,0.591984 -0.287777,0.249703 -1.233112,0.782591 -1.802064,0.897046 -0.338737,0.06865 -0.491499,-0.179297 -0.515808,-0.201438 -0.292228,-0.26546 -0.40516,-0.357773 -1.859631,-0.357773 -1.385863,0 -3.886399,-0.203664 -5.420813,-0.760673 -0.796988,-0.288656 -1.702451,-0.825544 -2.291993,-1.511394 -0.533556,-0.620539 -0.951954,-1.323434 -1.250825,-2.064625 -0.332059,-0.824437 -0.43392,-1.658831 -0.431694,-2.581322 0.002,-0.920957 0.199271,-1.915412 0.562316,-2.787799 0.57116,-1.340924 1.647093,-3.165838 3.102255,-3.696102 0.221412,-0.07972 0.442766,-0.126169 0.619878,-0.163833 0.715066,-0.159381 0.473751,0.03339 1.131268,-0.270556 0.285609,-0.130621 0.303299,-0.326319 0.529104,-0.558801 0.236875,-0.241562 0.449384,-0.352443 0.515808,-0.627849 0.08856,-0.344243 0.06642,-0.380969 0.19927,-1.03209 0.04452,-0.203664 0.08857,-0.517624 0.17713,-0.774403 0.418398,-1.297532 1.695804,-2.372129 2.773277,-3.154082 0.480429,-0.348695 0.980738,-0.593531 1.54969,-0.822663 1.301744,-0.525999 2.698899,-0.701787 4.130146,-0.537304 0.843474,0.09741 1.609465,0.249528 2.426369,0.528225 0.642019,0.219186 1.556332,0.707101 1.722374,1.301299 0.06642,0.21696 0.110706,0.402466 0.154988,0.619432 0.110706,0.495658 -0.394031,1.674108 0.861187,1.704215 1.058214,0.0246 0.712858,1.107587 0.721709,1.90966 0.01699,1.5612 0.110706,2.120862 -0.04452,2.374812 -0.08856,0.150537 -0.741636,0.199213 -0.48037,0.801851 0.06642,0.172678 0.664154,0.179297 0.730566,0.179297 0.340904,4.7e-5 0.267861,0 0.670796,0 0.360878,0 0.367496,-6.5e-5 0.723923,0 0.644232,4.7e-5 0.905463,0.181522 1.651527,0.208115 1.016152,0.03514 1.753366,0.282681 3.510714,0.541054 0.586665,0.08634 0.51364,0.04862 1.239748,0.07749 0.04452,0.0018 0.154989,0.0036 0.259017,0.03983 0.582231,0.22557 0.110706,0.266338 0.67079,0.483064 -0.04452,-0.01347 0.597742,-0.0246 0.721715,-0.12617 0.23465,-0.194819 0.281158,-0.338736 0.429469,-0.543689 0.199271,-0.280045 0.5424,-0.387881 0.863395,-0.550601 0.604378,-0.308161 0.739428,-0.478613 1.341592,-0.535078 0.464906,-0.04452 1.33273,0.05506 1.598394,-0.05096 0.371949,-0.150537 0.283384,-0.132847 0.378568,-0.525356 0.04452,-0.168284 0.08857,-0.523129 0.132847,-0.774402 0.06642,-0.5178 0.232424,-0.976971 0.132847,-1.600386 -0.06642,-0.396082 -0.06642,-0.570282 -0.19927,-0.980955 -0.593308,-1.735429 -2.531752,-2.652912 -4.098926,-3.325963 -1.425717,-0.611911 -3.136574,-0.867829 -4.697997,-0.711752 -0.619877,0.06197 -1.266318,0.154989 -1.859625,0.377221 -1.638243,0.613012 -2.447404,1.76399 -3.561633,2.45814 -0.199271,0.119551 -0.265636,0.166059 -0.360878,0.221412 m -0.309918,5.214261 c -0.06642,0.06865 -0.132847,0.130622 -0.221412,0.212509 -0.712852,0.71861 -0.761557,0.97874 -1.277382,2.008176 -0.340963,0.680976 -0.469358,1.316569 -0.646447,2.116651 -0.06642,0.313901 -0.489273,0.863178 -0.498118,0.868936 -1.195478,0.699574 -1.082569,0.378978 -2.167353,0.07527 -0.509189,-0.143917 -1.390291,-0.837054 -1.65595,-1.666581 -0.221412,-0.668137 -0.320988,-1.325425 -0.223579,-2.116651 0.04452,-0.435443 0.110706,-0.668359 0.132847,-1.084121 0.0055,-0.247712 0.04452,-0.613012 0.06642,-0.774403 0.04452,-0.349807 0.02226,-0.617663 0.23465,-1.027222 0.298847,-0.608807 1.886194,-0.667914 2.375673,-0.749608 0.352033,-0.05975 0.617663,-0.104029 0.748278,-0.221412 0.301074,-0.266749 0.154989,-0.159381 0.327666,-0.584223 0.588886,-1.381657 1.848561,-2.040498 2.123077,-2.219929 m -13.526127,2.426443 c 0.110706,0.07304 0.199271,0.101861 0.929813,0.183748 0.345356,0.03983 1.91055,0.230667 2.374789,0.332294 2.348664,0.513816 4.122841,0.224047 4.697997,0.671012 m 3.097604,-0.722821 c 0.154989,0.146143 1.222042,0.712635 2.167353,1.211193 0.757135,0.399596 0.597736,0.521782 0.87668,0.802296 m 14.610255,-0.104029 c 0.9121,0.912768 4.019891,2.658759 5.223118,5.369121 0.252398,0.568935 0.305525,1.039839 0.380793,1.651967 0.154989,1.284915 -0.08856,2.497743 -0.524652,3.665479 -0.420624,1.132827 -1.217613,2.344126 -2.08987,3.252026 -0.932027,0.970328 -2.284684,1.871803 -3.506503,2.288912 -1.919401,0.655075 -3.128602,0.55148 -5.00771,0.551011 -0.19927,-6.4e-5 -0.349807,0.01347 -0.515807,-0.0076 -0.619877,-0.07749 -0.670796,-0.455593 -0.774848,-0.513816 -0.02226,-0.01289 -0.154988,-0.112931 -0.411779,-0.02636 -0.265636,0.08856 -0.312144,0.210341 -0.338737,0.24244 -0.132847,0.163833 -0.154988,0.300429 -0.340963,1.028997 -0.04452,0.146144 -0.110706,0.428824 -0.177129,0.619432 -0.267862,0.796321 -1.078141,1.325425 -1.833062,1.593082 -0.416172,0.148311 -0.673004,0.163833 -1.084778,0.221353 -0.704002,0.09963 -1.341592,0.0046 -1.961469,-0.21696 -0.360878,-0.128396 -0.701788,-0.291584 -0.969661,-0.543279 -0.177129,-0.157214 -0.416172,-0.926937 -0.438372,-1.001766 -0.132847,-0.422381 -0.861181,-1.111786 -0.02226,-1.612558 0.411779,-0.249293 0.934241,-0.35379 1.179979,-0.398073 0.715066,-0.128395 1.899473,-0.104028 2.632921,-0.106254 0.154988,-2.46e-4 0.821332,-4.7e-5 1.135702,-4.7e-5 0.34313,0 0.553471,0 0.67079,0 0.471525,0 0.881114,-0.239511 1.394725,0.20589 m -3.975173,-15.591129 c -0.263468,0.355782 -0.19927,1.315468 -0.19927,1.651967 0,0.06865 0,0.309508 0,0.567881 0,0.338736 0,0.672564 0,0.980954 -2.23e-4,0.502511 0.02167,0.940438 0.0049,1.393834 -0.01464,0.402466 -0.0049,0.319466 -0.0049,0.774403 0,0.361054 0.0029,0.811152 -0.04452,0.929151 -0.301073,0.790563 -0.467132,0.637361 -0.639804,0.825538 -0.04452,0.04627 -0.04452,0.166059 -0.400709,0.320989 -0.177129,0.07304 -0.347581,0.126169 -0.360878,0.135014 -0.199271,0.117325 -0.285609,0.244432 -0.414005,0.370836 -0.199271,0.197045 -0.334285,0.616111 -1.341592,1.287123 -0.177129,0.121777 -0.84126,0.401353 -1.135702,0.524653 -0.774842,0.324796 -3.237962,0.958151 -3.923589,1.027667 -0.524652,0.0533 -0.75492,0.04217 -1.394719,0.154988 m 16.159055,-9.757357 c -0.440539,0.439895 -0.555697,0.369488 -0.732785,0.825989 -0.06642,0.179297 -0.04452,0.329189 -0.04452,0.671235 0,0.427243 -0.02226,0.556751 0.04452,1.084116 0.06642,0.506729 0.110705,1.006416 0.292228,1.497224 0.431695,1.172007 0.812482,2.045811 1.994669,2.459623 0.42285,0.148311 0.456062,0.0533 0.810268,0.297969 0.252398,0.174903 0.17713,0.521606 0.17713,0.95948 0,0.781707 -0.007,0.995786 0.0022,1.290668 0.0013,0.04627 0.04452,0.23998 0.0164,0.413126 -0.04452,0.411135 -0.154989,0.526234 -0.586666,0.63803 -0.154988,0.03983 -0.409553,0.05975 -0.566767,0.07304 -0.334285,0.0287 -0.544627,0.0012 -0.774848,0.01582 -0.278932,0.01757 -0.345356,0.02636 -0.668576,0.174904 -0.17713,0.07749 -0.309918,0.29955 -0.345356,0.389638 -0.199271,0.501632 -0.808054,2.22055 -1.115775,2.838922 -0.06642,0.119551 -0.08857,0.185974 -0.132847,0.257904 -0.06642,0.128395 -0.110706,0.247302 -0.17713,0.413126 m 2.374783,-14.300466 c 0.29668,0.297325 0.462681,0.139466 0.965239,1.032535 0.254565,0.4512 0.697359,1.332736 0.925384,1.858524 0.290003,0.667914 0.376342,1.344463 0.460455,2.06507 0.154988,1.358632 -0.256791,1.722591 -0.442765,1.910099 m -14.197134,-3.252467 c 0.411779,0.842589 0.5424,1.015712 0.980737,1.282924 0.684075,0.417754 1.562969,0.259251 1.910545,0.501457 0.08856,0.05506 0.132847,0.117325 0.19927,0.179296 0.110706,0.106255 0.221354,0.212509 0.309918,0.307048 0.132847,0.135015 0.261243,0.260599 0.414005,0.413127 m 0.41178,0 c 0.947525,0.947748 1.80207,1.764652 3.046024,2.334431 0.42285,0.194819 1.002872,0.518678 1.755579,0.554115 0.511415,0.0246 1.450066,0.09964 1.704661,0.382316 0.3542,0.392743 0.51364,0.698244 0.721709,0.910776 m -18.327292,0.671236 c -0.110706,0.549898 -0.08856,0.363045 -0.281158,0.774402 -0.250172,0.559856 -0.53133,1.092756 -0.730566,1.858519 -0.06642,0.279811 0.04452,0.56829 0.154989,0.825989 0.177129,0.384542 0.177129,0.400064 0.347581,0.503859 0.681867,0.401353 4.135236,0.115099 5.66921,0.115099 0.316596,0 1.808707,0 1.961464,0 1.155623,0 1.30838,-0.157156 1.806492,-0.104029"
       id="path3294" />
  </g>
</svg>
