<?xml version="1.0" encoding="UTF-8" standalone="no"?>
<!-- Created with Inkscape (http://www.inkscape.org/) -->

<svg
   width="210mm"
   height="297mm"
   viewBox="0 0 210 297"
   version="1.1"
   id="svg29558"
   inkscape:version="1.2.1 (9c6d41e410, 2022-07-14, custom)"
   sodipodi:docname="meta_program.svg"
   xmlns:inkscape="http://www.inkscape.org/namespaces/inkscape"
   xmlns:sodipodi="http://sodipodi.sourceforge.net/DTD/sodipodi-0.dtd"
   xmlns="http://www.w3.org/2000/svg"
   xmlns:svg="http://www.w3.org/2000/svg">
  <sodipodi:namedview
     id="namedview29560"
     pagecolor="#ffffff"
     bordercolor="#666666"
     borderopacity="1.0"
     inkscape:showpageshadow="2"
     inkscape:pageopacity="0.0"
     inkscape:pagecheckerboard="0"
     inkscape:deskcolor="#d1d1d1"
     inkscape:document-units="mm"
     showgrid="false"
     inkscape:zoom="2.5277831"
     inkscape:cx="360.59264"
     inkscape:cy="389.86731"
     inkscape:window-width="1920"
     inkscape:window-height="1080"
     inkscape:window-x="0"
     inkscape:window-y="0"
     inkscape:window-maximized="1"
     inkscape:current-layer="layer1" />
  <defs
     id="defs29555" />
  <g
     inkscape:label="Layer 1"
     inkscape:groupmode="layer"
     id="layer1">
    <g
       id="g29875">
      <path
         d="m 106.94801,92.235407 q -0.23707,0 -0.42333,-0.0804 -0.18203,-0.0847 -0.30903,-0.23283 -0.127,-0.14817 -0.19474,-0.35984 -0.0635,-0.21166 -0.0635,-0.4699 0,-0.25823 0.0677,-0.4699 0.0677,-0.21166 0.19474,-0.35983 0.127,-0.1524 0.30903,-0.23283 0.18203,-0.0804 0.41487,-0.0804 0.31749,0 0.51646,0.1397 0.19897,0.1397 0.2921,0.36407 l -0.27093,0.14393 q -0.0593,-0.16933 -0.19897,-0.26246 -0.13547,-0.0931 -0.33866,-0.0931 -0.14817,0 -0.2667,0.0508 -0.1143,0.0466 -0.19474,0.13547 -0.0804,0.0889 -0.12276,0.21167 -0.0381,0.12276 -0.0381,0.2667 v 0.37253 q 0,0.14393 0.0381,0.2667 0.0423,0.12277 0.12276,0.21167 0.0804,0.0889 0.19897,0.1397 0.11853,0.0466 0.27093,0.0466 0.22014,0 0.36407,-0.1016 0.14393,-0.1016 0.2286,-0.2794 l 0.2413,0.1651 q -0.0974,0.22014 -0.3048,0.36407 -0.2032,0.14393 -0.5334,0.14393 z"
         style="font-size:4.23333px;line-height:1.25;font-family:'IBM Plex Mono';-inkscape-font-specification:'IBM Plex Mono, Normal';baseline-shift:baseline;stroke-width:0.264583;stroke-linejoin:round"
         id="path20471" />
      <path
         d="m 109.41181,92.235407 q -0.2286,0 -0.41487,-0.0804 -0.18203,-0.0804 -0.31326,-0.2286 -0.127,-0.1524 -0.19473,-0.35983 -0.0677,-0.21167 -0.0677,-0.47414 0,-0.25823 0.0677,-0.4699 0.0677,-0.21166 0.19473,-0.35983 0.13123,-0.1524 0.31326,-0.23283 0.18627,-0.0804 0.41487,-0.0804 0.2286,0 0.41063,0.0804 0.18627,0.0804 0.31327,0.23283 0.13123,0.14817 0.19897,0.35983 0.0677,0.21167 0.0677,0.4699 0,0.26247 -0.0677,0.47414 -0.0677,0.20743 -0.19897,0.35983 -0.127,0.14817 -0.31327,0.2286 -0.18203,0.0804 -0.41063,0.0804 z m 0,-0.2921 q 0.28363,0 0.4572,-0.16933 0.17357,-0.16933 0.17357,-0.52493 v -0.31327 q 0,-0.3556 -0.17357,-0.52493 -0.17357,-0.16934 -0.4572,-0.16934 -0.28363,0 -0.4572,0.16934 -0.17356,0.16933 -0.17356,0.52493 v 0.31327 q 0,0.3556 0.17356,0.52493 0.17357,0.16933 0.4572,0.16933 z"
         style="font-size:4.23333px;line-height:1.25;font-family:'IBM Plex Mono';-inkscape-font-specification:'IBM Plex Mono, Normal';baseline-shift:baseline;stroke-width:0.264583;stroke-linejoin:round"
         id="path20473" />
      <path
         d="m 111.09668,92.184607 v -2.1844 h 0.33866 v 0.3556 h 0.0169 q 0.0339,-0.0804 0.0847,-0.1524 0.0508,-0.0762 0.12276,-0.13123 0.0762,-0.055 0.1778,-0.0889 0.1016,-0.0339 0.23707,-0.0339 0.3429,0 0.55033,0.22014 0.20743,0.2159 0.20743,0.61383 v 1.40123 h -0.33866 v -1.34196 q 0,-0.30057 -0.13124,-0.4445 -0.13123,-0.14817 -0.38523,-0.14817 -0.1016,0 -0.19897,0.0254 -0.0974,0.0254 -0.17356,0.0762 -0.0762,0.0508 -0.12277,0.13123 -0.0466,0.0804 -0.0466,0.18627 v 1.51553 z"
         style="font-size:4.23333px;line-height:1.25;font-family:'IBM Plex Mono';-inkscape-font-specification:'IBM Plex Mono, Normal';baseline-shift:baseline;stroke-width:0.264583;stroke-linejoin:round"
         id="path20475" />
      <path
         d="m 114.56801,92.235407 q -0.23707,0 -0.42333,-0.0804 -0.18204,-0.0847 -0.30904,-0.23283 -0.127,-0.14817 -0.19473,-0.35984 -0.0635,-0.21166 -0.0635,-0.4699 0,-0.25823 0.0677,-0.4699 0.0677,-0.21166 0.19474,-0.35983 0.127,-0.1524 0.30903,-0.23283 0.18203,-0.0804 0.41486,-0.0804 0.3175,0 0.51647,0.1397 0.19897,0.1397 0.2921,0.36407 l -0.27093,0.14393 q -0.0593,-0.16933 -0.19897,-0.26246 -0.13547,-0.0931 -0.33867,-0.0931 -0.14816,0 -0.2667,0.0508 -0.1143,0.0466 -0.19473,0.13547 -0.0804,0.0889 -0.12276,0.21167 -0.0381,0.12276 -0.0381,0.2667 v 0.37253 q 0,0.14393 0.0381,0.2667 0.0423,0.12277 0.12276,0.21167 0.0804,0.0889 0.19897,0.1397 0.11853,0.0466 0.27093,0.0466 0.22013,0 0.36407,-0.1016 0.14393,-0.1016 0.2286,-0.2794 l 0.2413,0.1651 q -0.0974,0.22014 -0.3048,0.36407 -0.2032,0.14393 -0.5334,0.14393 z"
         style="font-size:4.23333px;line-height:1.25;font-family:'IBM Plex Mono';-inkscape-font-specification:'IBM Plex Mono, Normal';baseline-shift:baseline;stroke-width:0.264583;stroke-linejoin:round"
         id="path20477" />
      <path
         d="m 117.85731,92.184607 q -0.19897,0 -0.28363,-0.1016 -0.0847,-0.1016 -0.10584,-0.254 h -0.0212 q -0.072,0.1905 -0.23283,0.30057 -0.15663,0.10583 -0.42333,0.10583 -0.3429,0 -0.5461,-0.1778 -0.2032,-0.1778 -0.2032,-0.48683 0,-0.3048 0.22013,-0.4699 0.22437,-0.1651 0.71967,-0.1651 h 0.46566 v -0.2159 q 0,-0.2413 -0.13546,-0.35983 -0.13547,-0.12277 -0.38524,-0.12277 -0.22013,0 -0.35983,0.0889 -0.1397,0.0847 -0.22437,0.23283 l -0.2286,-0.16933 q 0.0423,-0.0847 0.1143,-0.1651 0.072,-0.0804 0.1778,-0.1397 0.10584,-0.0635 0.2413,-0.0974 0.13547,-0.0381 0.30057,-0.0381 0.38523,0 0.6096,0.19474 0.2286,0.19473 0.2286,0.54186 v 1.20227 h 0.3048 v 0.29633 z m -1.00753,-0.23283 q 0.13123,0 0.23706,-0.0296 0.11007,-0.0339 0.1905,-0.0847 0.0804,-0.055 0.12277,-0.127 0.0466,-0.0762 0.0466,-0.16087 v -0.35983 h -0.46567 q -0.3048,0 -0.4445,0.0847 -0.1397,0.0847 -0.1397,0.24553 v 0.0889 q 0,0.16933 0.11854,0.25823 0.12276,0.0847 0.33443,0.0847 z"
         style="font-size:4.23333px;line-height:1.25;font-family:'IBM Plex Mono';-inkscape-font-specification:'IBM Plex Mono, Normal';baseline-shift:baseline;stroke-width:0.264583;stroke-linejoin:round"
         id="path20479" />
      <path
         d="m 119.67764,92.184607 q -0.24976,0 -0.3683,-0.1397 -0.1143,-0.1397 -0.1143,-0.35983 v -1.397 h -0.72813 v -0.28787 h 0.54187 q 0.11006,0 0.1524,-0.0423 0.0466,-0.0466 0.0466,-0.15663 v -0.5715 h 0.32596 v 0.77046 h 0.99483 v 0.28787 h -0.99483 v 1.60867 h 0.99483 v 0.28786 z"
         style="font-size:4.23333px;line-height:1.25;font-family:'IBM Plex Mono';-inkscape-font-specification:'IBM Plex Mono, Normal';baseline-shift:baseline;stroke-width:0.264583;stroke-linejoin:round"
         id="path20481" />
      <path
         style="fill:none;stroke:#000000;stroke-width:0.264583px;stroke-linecap:butt;stroke-linejoin:miter;stroke-opacity:1"
         d="m 113.18129,92.802927 7.74817,2.59772"
         id="path14752" />
      <path
         style="fill:none;stroke:#000000;stroke-width:0.264583px;stroke-linecap:butt;stroke-linejoin:miter;stroke-opacity:1"
         d="m 113.29362,92.802927 -7.74816,2.59772"
         id="path14754" />
    </g>
    <g
       id="g29865">
      <path
         d="m 114.48634,85.976309 q -0.23707,0 -0.42333,-0.0804 -0.18203,-0.0847 -0.30904,-0.23283 -0.12699,-0.14817 -0.19473,-0.35984 -0.0635,-0.21166 -0.0635,-0.4699 0,-0.25823 0.0677,-0.4699 0.0677,-0.21166 0.19474,-0.35983 0.127,-0.1524 0.30903,-0.23283 0.18203,-0.0804 0.41487,-0.0804 0.31749,0 0.51646,0.1397 0.19897,0.1397 0.2921,0.36407 l -0.27093,0.14393 q -0.0593,-0.16933 -0.19897,-0.26246 -0.13547,-0.0931 -0.33866,-0.0931 -0.14817,0 -0.2667,0.0508 -0.1143,0.0466 -0.19474,0.13547 -0.0804,0.0889 -0.12276,0.21167 -0.0381,0.12276 -0.0381,0.2667 v 0.37253 q 0,0.14393 0.0381,0.2667 0.0423,0.12277 0.12276,0.21167 0.0804,0.0889 0.19897,0.1397 0.11853,0.0466 0.27093,0.0466 0.22013,0 0.36407,-0.1016 0.14393,-0.1016 0.2286,-0.2794 l 0.2413,0.1651 q -0.0974,0.22014 -0.3048,0.36407 -0.2032,0.14393 -0.5334,0.14393 z"
         style="font-size:4.23333px;line-height:1.25;font-family:'IBM Plex Mono';-inkscape-font-specification:'IBM Plex Mono, Normal';baseline-shift:baseline;stroke-width:0.264583;stroke-linejoin:round"
         id="path29746" />
      <path
         d="m 116.95014,85.976309 q -0.2286,0 -0.41487,-0.0804 -0.18203,-0.0804 -0.31326,-0.2286 -0.127,-0.1524 -0.19473,-0.35983 -0.0677,-0.21167 -0.0677,-0.47414 0,-0.25823 0.0677,-0.4699 0.0677,-0.21166 0.19473,-0.35983 0.13123,-0.1524 0.31326,-0.23283 0.18627,-0.0804 0.41487,-0.0804 0.2286,0 0.41063,0.0804 0.18627,0.0804 0.31327,0.23283 0.13123,0.14817 0.19897,0.35983 0.0677,0.21167 0.0677,0.4699 0,0.26247 -0.0677,0.47414 -0.0677,0.20743 -0.19897,0.35983 -0.127,0.14817 -0.31327,0.2286 -0.18203,0.0804 -0.41063,0.0804 z m 0,-0.2921 q 0.28363,0 0.4572,-0.16933 0.17357,-0.16933 0.17357,-0.52493 v -0.31327 q 0,-0.3556 -0.17357,-0.52493 -0.17357,-0.16934 -0.4572,-0.16934 -0.28363,0 -0.4572,0.16934 -0.17357,0.16933 -0.17357,0.52493 v 0.31327 q 0,0.3556 0.17357,0.52493 0.17357,0.16933 0.4572,0.16933 z"
         style="font-size:4.23333px;line-height:1.25;font-family:'IBM Plex Mono';-inkscape-font-specification:'IBM Plex Mono, Normal';baseline-shift:baseline;stroke-width:0.264583;stroke-linejoin:round"
         id="path29748" />
      <path
         d="m 118.63501,85.925509 v -2.1844 h 0.33866 v 0.3556 h 0.0169 q 0.0339,-0.0804 0.0847,-0.1524 0.0508,-0.0762 0.12277,-0.13123 0.0762,-0.055 0.1778,-0.0889 0.1016,-0.0339 0.23707,-0.0339 0.3429,0 0.55033,0.22014 0.20743,0.2159 0.20743,0.61383 v 1.40123 h -0.33866 v -1.34196 q 0,-0.30057 -0.13124,-0.4445 -0.13123,-0.14817 -0.38523,-0.14817 -0.1016,0 -0.19897,0.0254 -0.0974,0.0254 -0.17356,0.0762 -0.0762,0.0508 -0.12277,0.13123 -0.0466,0.0804 -0.0466,0.18627 v 1.51553 z"
         style="font-size:4.23333px;line-height:1.25;font-family:'IBM Plex Mono';-inkscape-font-specification:'IBM Plex Mono, Normal';baseline-shift:baseline;stroke-width:0.264583;stroke-linejoin:round"
         id="path29750" />
      <path
         d="m 122.10634,85.976309 q -0.23707,0 -0.42333,-0.0804 -0.18204,-0.0847 -0.30904,-0.23283 -0.127,-0.14817 -0.19473,-0.35984 -0.0635,-0.21166 -0.0635,-0.4699 0,-0.25823 0.0677,-0.4699 0.0677,-0.21166 0.19473,-0.35983 0.127,-0.1524 0.30904,-0.23283 0.18203,-0.0804 0.41486,-0.0804 0.3175,0 0.51647,0.1397 0.19897,0.1397 0.2921,0.36407 l -0.27093,0.14393 q -0.0593,-0.16933 -0.19897,-0.26246 -0.13547,-0.0931 -0.33867,-0.0931 -0.14816,0 -0.2667,0.0508 -0.1143,0.0466 -0.19473,0.13547 -0.0804,0.0889 -0.12277,0.21167 -0.0381,0.12276 -0.0381,0.2667 v 0.37253 q 0,0.14393 0.0381,0.2667 0.0423,0.12277 0.12277,0.21167 0.0804,0.0889 0.19897,0.1397 0.11853,0.0466 0.27093,0.0466 0.22013,0 0.36407,-0.1016 0.14393,-0.1016 0.2286,-0.2794 l 0.2413,0.1651 q -0.0974,0.22014 -0.3048,0.36407 -0.2032,0.14393 -0.5334,0.14393 z"
         style="font-size:4.23333px;line-height:1.25;font-family:'IBM Plex Mono';-inkscape-font-specification:'IBM Plex Mono, Normal';baseline-shift:baseline;stroke-width:0.264583;stroke-linejoin:round"
         id="path29752" />
      <path
         d="m 125.39564,85.925509 q -0.19897,0 -0.28364,-0.1016 -0.0847,-0.1016 -0.10583,-0.254 h -0.0212 q -0.072,0.1905 -0.23283,0.30057 -0.15663,0.10583 -0.42333,0.10583 -0.3429,0 -0.5461,-0.1778 -0.2032,-0.1778 -0.2032,-0.48683 0,-0.3048 0.22013,-0.4699 0.22437,-0.1651 0.71967,-0.1651 h 0.46566 v -0.2159 q 0,-0.2413 -0.13546,-0.35983 -0.13547,-0.12277 -0.38524,-0.12277 -0.22013,0 -0.35983,0.0889 -0.1397,0.0847 -0.22437,0.23283 l -0.2286,-0.16933 q 0.0423,-0.0847 0.1143,-0.1651 0.072,-0.0804 0.1778,-0.1397 0.10584,-0.0635 0.2413,-0.0974 0.13547,-0.0381 0.30057,-0.0381 0.38523,0 0.6096,0.19474 0.2286,0.19473 0.2286,0.54186 v 1.20227 h 0.3048 v 0.29633 z m -1.00753,-0.23283 q 0.13123,0 0.23706,-0.0296 0.11007,-0.0339 0.1905,-0.0847 0.0804,-0.055 0.12277,-0.127 0.0466,-0.0762 0.0466,-0.16087 v -0.35983 h -0.46567 q -0.3048,0 -0.4445,0.0847 -0.1397,0.0847 -0.1397,0.24553 v 0.0889 q 0,0.16933 0.11854,0.25823 0.12276,0.0847 0.33443,0.0847 z"
         style="font-size:4.23333px;line-height:1.25;font-family:'IBM Plex Mono';-inkscape-font-specification:'IBM Plex Mono, Normal';baseline-shift:baseline;stroke-width:0.264583;stroke-linejoin:round"
         id="path29754" />
      <path
         d="m 127.21597,85.925509 q -0.24976,0 -0.3683,-0.1397 -0.1143,-0.1397 -0.1143,-0.35983 v -1.397 h -0.72813 v -0.28787 h 0.54187 q 0.11006,0 0.1524,-0.0423 0.0466,-0.0466 0.0466,-0.15663 v -0.5715 h 0.32596 v 0.77046 h 0.99483 v 0.28787 h -0.99483 v 1.60867 h 0.99483 v 0.28786 z"
         style="font-size:4.23333px;line-height:1.25;font-family:'IBM Plex Mono';-inkscape-font-specification:'IBM Plex Mono, Normal';baseline-shift:baseline;stroke-width:0.264583;stroke-linejoin:round"
         id="path29756" />
      <path
         style="fill:none;stroke:#000000;stroke-width:0.264583px;stroke-linecap:butt;stroke-linejoin:miter;stroke-opacity:1"
         d="m 120.71962,86.543829 7.74816,2.59772"
         id="path29760" />
      <path
         style="fill:none;stroke:#000000;stroke-width:0.264583px;stroke-linecap:butt;stroke-linejoin:miter;stroke-opacity:1"
         d="m 120.83195,86.543829 -7.74816,2.59772"
         id="path29762" />
    </g>
    <g
       id="g29888">
      <g
         aria-label="⚙"
         id="text29831"
         style="font-size:3.175px;line-height:1.25;font-family:Calibri;-inkscape-font-specification:'Calibri, Normal';baseline-shift:baseline;opacity:1;vector-effect:none;stroke-width:0.264583;stroke-linejoin:round;stop-color:#000000;stop-opacity:1">
        <path
           d="m 105.3933,96.149066 q 0.0667,-0.0078 0.13488,-0.0078 0.0682,0 0.13488,0.0078 l 0.0403,0.289905 q 0.10387,0.02015 0.20309,0.06666 l 0.19534,-0.204639 q 0.11782,0.06976 0.21704,0.168982 l -0.13023,0.241846 q 0.0729,0.07751 0.12403,0.170532 l 0.2558,-0.04806 q 0.0574,0.130224 0.0822,0.272851 l -0.22944,0.10697 q 0.006,0.05426 0.006,0.106971 0,0.05271 -0.006,0.10697 l 0.22944,0.10852 q -0.0248,0.141077 -0.0822,0.271302 l -0.2558,-0.04806 q -0.0512,0.09302 -0.12403,0.172082 l 0.13023,0.240295 q -0.0992,0.09922 -0.21704,0.170533 l -0.19534,-0.204639 q -0.0992,0.04496 -0.20309,0.06666 l -0.0403,0.288354 q -0.0667,0.0093 -0.13488,0.0093 -0.0682,0 -0.13488,-0.0093 l -0.0403,-0.288354 q -0.10387,-0.0217 -0.20309,-0.06666 l -0.19534,0.204639 q -0.11782,-0.07131 -0.21704,-0.170533 l 0.13023,-0.240295 q -0.0729,-0.07752 -0.12403,-0.172082 l -0.2558,0.04806 q -0.0574,-0.130225 -0.0822,-0.271302 l 0.22944,-0.10852 q -0.006,-0.05426 -0.006,-0.10697 0,-0.05271 0.006,-0.106971 l -0.22944,-0.10697 q 0.0248,-0.142627 0.0822,-0.272851 l 0.2558,0.04806 q 0.0512,-0.09302 0.12403,-0.172083 l -0.13023,-0.240295 q 0.0992,-0.09922 0.21704,-0.168982 l 0.19534,0.203088 q 0.0992,-0.04496 0.20309,-0.06511 z m 0.61702,0.691431 q -0.19999,-0.201538 -0.48214,-0.201538 -0.28215,0 -0.48214,0.201538 -0.19999,0.199988 -0.19999,0.482141 0,0.280603 0.19999,0.480591 0.19999,0.199988 0.48214,0.199988 0.28215,0 0.48214,-0.199988 0.19999,-0.199988 0.19999,-0.480591 0,-0.282153 -0.19999,-0.482141 z m -0.31316,0.311609 q 0.0713,0.06976 0.0713,0.168982 0,0.09922 -0.0713,0.170532 -0.0698,0.06976 -0.16898,0.06976 -0.0992,0 -0.17053,-0.06976 -0.0698,-0.07131 -0.0698,-0.170532 0,-0.09922 0.0698,-0.168982 0.0713,-0.07131 0.17053,-0.07131 0.0992,0 0.16898,0.07131 z"
           style="font-family:'IBM Plex Mono';-inkscape-font-specification:'IBM Plex Mono, Normal'"
           id="path29877" />
      </g>
    </g>
    <g
       id="g29892">
      <g
         aria-label="⚙"
         id="text29835"
         style="font-size:3.175px;line-height:1.25;font-family:Calibri;-inkscape-font-specification:'Calibri, Normal';baseline-shift:baseline;opacity:1;vector-effect:none;stroke-width:0.264583;stroke-linejoin:round;stop-color:#000000;stop-opacity:1">
        <path
           d="m 120.77822,96.149066 q 0.0667,-0.0078 0.13487,-0.0078 0.0682,0 0.13488,0.0078 l 0.0403,0.289905 q 0.10387,0.02015 0.20309,0.06666 l 0.19534,-0.204639 q 0.11782,0.06976 0.21704,0.168982 l -0.13022,0.241846 q 0.0729,0.07751 0.12402,0.170532 l 0.2558,-0.04806 q 0.0574,0.130224 0.0822,0.272851 l -0.22944,0.10697 q 0.006,0.05426 0.006,0.106971 0,0.05271 -0.006,0.10697 l 0.22944,0.10852 q -0.0248,0.141077 -0.0822,0.271302 l -0.2558,-0.04806 q -0.0512,0.09302 -0.12402,0.172082 l 0.13022,0.240295 q -0.0992,0.09922 -0.21704,0.170533 l -0.19534,-0.204639 q -0.0992,0.04496 -0.20309,0.06666 l -0.0403,0.288354 q -0.0667,0.0093 -0.13488,0.0093 -0.0682,0 -0.13487,-0.0093 l -0.0403,-0.288354 q -0.10387,-0.0217 -0.20309,-0.06666 l -0.19534,0.204639 q -0.11782,-0.07131 -0.21704,-0.170533 l 0.13023,-0.240295 q -0.0729,-0.07752 -0.12403,-0.172082 l -0.2558,0.04806 q -0.0574,-0.130225 -0.0822,-0.271302 l 0.22944,-0.10852 q -0.006,-0.05426 -0.006,-0.10697 0,-0.05271 0.006,-0.106971 l -0.22944,-0.10697 q 0.0248,-0.142627 0.0822,-0.272851 l 0.2558,0.04806 q 0.0512,-0.09302 0.12403,-0.172083 l -0.13023,-0.240295 q 0.0992,-0.09922 0.21704,-0.168982 l 0.19534,0.203088 q 0.0992,-0.04496 0.20309,-0.06511 z m 0.61701,0.691431 q -0.19999,-0.201538 -0.48214,-0.201538 -0.28215,0 -0.48214,0.201538 -0.19999,0.199988 -0.19999,0.482141 0,0.280603 0.19999,0.480591 0.19999,0.199988 0.48214,0.199988 0.28215,0 0.48214,-0.199988 0.19999,-0.199988 0.19999,-0.480591 0,-0.282153 -0.19999,-0.482141 z m -0.31316,0.311609 q 0.0713,0.06976 0.0713,0.168982 0,0.09922 -0.0713,0.170532 -0.0698,0.06976 -0.16898,0.06976 -0.0992,0 -0.17053,-0.06976 -0.0698,-0.07131 -0.0698,-0.170532 0,-0.09922 0.0698,-0.168982 0.0713,-0.07131 0.17053,-0.07131 0.0992,0 0.16898,0.07131 z"
           style="font-family:'IBM Plex Mono';-inkscape-font-specification:'IBM Plex Mono, Normal'"
           id="path29880" />
      </g>
    </g>
    <g
       id="g29901">
      <g
         id="g29896">
        <g
           aria-label="⚙"
           id="text29839"
           style="font-size:3.175px;line-height:1.25;font-family:Calibri;-inkscape-font-specification:'Calibri, Normal';baseline-shift:baseline;opacity:1;vector-effect:none;stroke-width:0.264583;stroke-linejoin:round;stop-color:#000000;stop-opacity:1">
          <path
             d="m 128.40357,89.848117 q 0.0667,-0.0078 0.13487,-0.0078 0.0682,0 0.13488,0.0078 l 0.0403,0.289905 q 0.10387,0.02015 0.20309,0.06666 l 0.19534,-0.204638 q 0.11782,0.06976 0.21704,0.168982 l -0.13022,0.241845 q 0.0729,0.07752 0.12402,0.170533 l 0.2558,-0.04806 q 0.0574,0.130224 0.0822,0.272851 l -0.22944,0.10697 q 0.006,0.05426 0.006,0.106971 0,0.05271 -0.006,0.10697 l 0.22944,0.10852 q -0.0248,0.141077 -0.0822,0.271302 l -0.2558,-0.04806 q -0.0512,0.09302 -0.12402,0.172083 l 0.13022,0.240295 q -0.0992,0.09922 -0.21704,0.170533 l -0.19534,-0.204639 q -0.0992,0.04496 -0.20309,0.06666 l -0.0403,0.288354 q -0.0667,0.0093 -0.13488,0.0093 -0.0682,0 -0.13487,-0.0093 l -0.0403,-0.288354 q -0.10387,-0.0217 -0.20309,-0.06666 l -0.19534,0.204639 q -0.11782,-0.07131 -0.21704,-0.170533 l 0.13023,-0.240295 q -0.0729,-0.07752 -0.12403,-0.172083 l -0.2558,0.04806 q -0.0574,-0.130225 -0.0822,-0.271302 l 0.22944,-0.10852 q -0.006,-0.05426 -0.006,-0.10697 0,-0.05271 0.006,-0.106971 l -0.22944,-0.10697 q 0.0248,-0.142627 0.0822,-0.272851 l 0.2558,0.04806 q 0.0512,-0.09302 0.12403,-0.172083 l -0.13023,-0.240295 q 0.0992,-0.09922 0.21704,-0.168982 l 0.19534,0.203088 q 0.0992,-0.04496 0.20309,-0.06511 z m 0.61701,0.691431 q -0.19999,-0.201538 -0.48214,-0.201538 -0.28215,0 -0.48214,0.201538 -0.19999,0.199988 -0.19999,0.482141 0,0.280603 0.19999,0.480591 0.19999,0.199987 0.48214,0.199987 0.28215,0 0.48214,-0.199987 0.19999,-0.199988 0.19999,-0.480591 0,-0.282153 -0.19999,-0.482141 z m -0.31316,0.311609 q 0.0713,0.06976 0.0713,0.168982 0,0.09922 -0.0713,0.170532 -0.0698,0.06976 -0.16898,0.06976 -0.0992,0 -0.17053,-0.06976 -0.0698,-0.07131 -0.0698,-0.170532 0,-0.09922 0.0698,-0.168982 0.0713,-0.07131 0.17053,-0.07131 0.0992,0 0.16898,0.07131 z"
             style="font-family:'IBM Plex Mono';-inkscape-font-specification:'IBM Plex Mono, Normal'"
             id="path29883" />
        </g>
      </g>
    </g>
  </g>
</svg>
