<?xml version="1.0" encoding="UTF-8" standalone="no"?>
<!-- Created with Inkscape (http://www.inkscape.org/) -->

<svg
   width="29.635538mm"
   height="24.00399mm"
   viewBox="0 0 29.635538 24.003991"
   version="1.1"
   id="svg29954"
   inkscape:version="1.2.1 (9c6d41e410, 2022-07-14, custom)"
   sodipodi:docname="parallel.svg"
   xmlns:inkscape="http://www.inkscape.org/namespaces/inkscape"
   xmlns:sodipodi="http://sodipodi.sourceforge.net/DTD/sodipodi-0.dtd"
   xmlns="http://www.w3.org/2000/svg"
   xmlns:svg="http://www.w3.org/2000/svg">
  <sodipodi:namedview
     id="namedview29956"
     pagecolor="#ffffff"
     bordercolor="#666666"
     borderopacity="1.0"
     inkscape:showpageshadow="2"
     inkscape:pageopacity="0.0"
     inkscape:pagecheckerboard="0"
     inkscape:deskcolor="#d1d1d1"
     inkscape:document-units="mm"
     showgrid="false"
     inkscape:zoom="2.776262"
     inkscape:cx="16.208845"
     inkscape:cy="63.574692"
     inkscape:window-width="1920"
     inkscape:window-height="1080"
     inkscape:window-x="0"
     inkscape:window-y="0"
     inkscape:window-maximized="1"
     inkscape:current-layer="layer1" />
  <defs
     id="defs29951" />
  <g
     inkscape:label="Layer 1"
     inkscape:groupmode="layer"
     id="layer1"
     transform="translate(-33.060808,-125.37906)">
    <path
       d="m 40.310646,126.14949 h 0.338667 v 0.3556 h 0.01693 q 0.211667,-0.4064 0.6731,-0.4064 0.402167,0 0.626534,0.30056 0.2286,0.30057 0.2286,0.84244 0,0.54186 -0.2286,0.84243 -0.224367,0.30057 -0.626534,0.30057 -0.461433,0 -0.6731,-0.4064 h -0.01693 v 1.20226 h -0.338667 z m 0.897467,1.93463 q 0.296333,0 0.4572,-0.1778 0.1651,-0.18203 0.1651,-0.47837 v -0.37253 q 0,-0.29633 -0.1651,-0.47413 -0.160867,-0.18204 -0.4572,-0.18204 -0.1143,0 -0.2159,0.0296 -0.1016,0.0296 -0.1778,0.0889 -0.0762,0.055 -0.122767,0.1397 -0.04233,0.0804 -0.04233,0.1905 v 0.7874 q 0,0.11006 0.04233,0.19473 0.04657,0.0804 0.122767,0.1397 0.0762,0.055 0.1778,0.0847 0.1016,0.0296 0.2159,0.0296 z"
       style="font-size:16px;line-height:1.25;font-family:'IBM Plex Mono';-inkscape-font-specification:'IBM Plex Mono, Normal';baseline-shift:baseline;stroke-width:0.264583;stroke-linejoin:round"
       id="path20462" />
    <g
       id="g30743">
      <path
         d="m 35.154443,128.04602 h 0.639233 v -1.60867 h -0.639233 v -0.28786 h 0.9779 v 0.55033 h 0.02117 q 0.06773,-0.25823 0.254,-0.40217 0.1905,-0.14816 0.4826,-0.14816 h 0.3048 v 0.33866 h -0.410634 q -0.2921,0 -0.474133,0.16934 -0.1778,0.16933 -0.1778,0.4445 v 0.94403 h 0.846667 v 0.28787 h -1.82457 z"
         style="font-size:16px;line-height:1.25;font-family:'IBM Plex Mono';-inkscape-font-specification:'IBM Plex Mono, Normal';baseline-shift:baseline;stroke-width:0.264583;stroke-linejoin:round"
         id="path20458" />
      <path
         d="m 38.676578,128.38469 q -0.237067,0 -0.427567,-0.0804 -0.186266,-0.0804 -0.321733,-0.2286 -0.131233,-0.1524 -0.2032,-0.35983 -0.07197,-0.21167 -0.07197,-0.4699 0,-0.26247 0.07197,-0.47413 0.0762,-0.21167 0.207433,-0.35984 0.131234,-0.1524 0.313267,-0.23283 0.186267,-0.0804 0.410633,-0.0804 0.220134,0 0.397934,0.0804 0.182033,0.0804 0.309033,0.22437 0.127,0.1397 0.194733,0.33443 0.06773,0.19473 0.06773,0.42757 v 0.16086 h -1.617134 v 0.1016 q 0,0.14394 0.04657,0.2667 0.04657,0.12277 0.131233,0.21167 0.0889,0.0889 0.211667,0.1397 0.127,0.0466 0.2794,0.0466 0.220133,0 0.381,-0.1016 0.160867,-0.1016 0.245533,-0.2794 l 0.249767,0.16933 q -0.09737,0.22013 -0.325967,0.36407 -0.224366,0.1397 -0.550333,0.1397 z m -0.02117,-2.0066 q -0.1397,0 -0.258233,0.0508 -0.118533,0.0508 -0.207433,0.1397 -0.08467,0.0889 -0.135467,0.21166 -0.04657,0.11854 -0.04657,0.26247 v 0.0296 h 1.253067 v -0.0466 q 0,-0.14394 -0.04657,-0.26247 -0.04233,-0.11853 -0.122766,-0.2032 -0.0762,-0.0889 -0.1905,-0.13547 -0.110067,-0.0466 -0.245534,-0.0466 z"
         style="font-size:16px;line-height:1.25;font-family:'IBM Plex Mono';-inkscape-font-specification:'IBM Plex Mono, Normal';baseline-shift:baseline;stroke-width:0.264583;stroke-linejoin:round"
         id="path20460" />
      <path
         d="m 43.756581,128.38469 q -0.237066,0 -0.427566,-0.0804 -0.186267,-0.0804 -0.321734,-0.2286 -0.131233,-0.1524 -0.2032,-0.35983 -0.07197,-0.21167 -0.07197,-0.4699 0,-0.26247 0.07197,-0.47413 0.0762,-0.21167 0.207434,-0.35984 0.131233,-0.1524 0.313266,-0.23283 0.186267,-0.0804 0.410634,-0.0804 0.220133,0 0.397933,0.0804 0.182033,0.0804 0.309033,0.22437 0.127,0.1397 0.194734,0.33443 0.06773,0.19473 0.06773,0.42757 v 0.16086 h -1.617133 v 0.1016 q 0,0.14394 0.04657,0.2667 0.04657,0.12277 0.131234,0.21167 0.0889,0.0889 0.211666,0.1397 0.127,0.0466 0.2794,0.0466 0.220134,0 0.381,-0.1016 0.160867,-0.1016 0.245534,-0.2794 l 0.249766,0.16933 q -0.09737,0.22013 -0.325966,0.36407 -0.224367,0.1397 -0.550334,0.1397 z m -0.02117,-2.0066 q -0.1397,0 -0.258234,0.0508 -0.118533,0.0508 -0.207433,0.1397 -0.08467,0.0889 -0.135467,0.21166 -0.04657,0.11854 -0.04657,0.26247 v 0.0296 h 1.253066 v -0.0466 q 0,-0.14394 -0.04657,-0.26247 -0.04233,-0.11853 -0.122767,-0.2032 -0.0762,-0.0889 -0.1905,-0.13547 -0.110067,-0.0466 -0.245533,-0.0466 z"
         style="font-size:16px;line-height:1.25;font-family:'IBM Plex Mono';-inkscape-font-specification:'IBM Plex Mono, Normal';baseline-shift:baseline;stroke-width:0.264583;stroke-linejoin:round"
         id="path20464" />
      <path
         d="m 47.083983,128.33389 q -0.198967,0 -0.283634,-0.1016 -0.08467,-0.1016 -0.105833,-0.254 h -0.02117 q -0.07197,0.1905 -0.232833,0.30056 -0.156633,0.10584 -0.423333,0.10584 -0.3429,0 -0.5461,-0.1778 -0.2032,-0.1778 -0.2032,-0.48684 0,-0.3048 0.220133,-0.4699 0.224367,-0.1651 0.719667,-0.1651 h 0.465666 v -0.2159 q 0,-0.2413 -0.135466,-0.35983 -0.135467,-0.12277 -0.385234,-0.12277 -0.220133,0 -0.359833,0.0889 -0.1397,0.0847 -0.224367,0.23284 l -0.2286,-0.16934 q 0.04233,-0.0847 0.1143,-0.1651 0.07197,-0.0804 0.1778,-0.1397 0.105834,-0.0635 0.2413,-0.0974 0.135467,-0.0381 0.300567,-0.0381 0.385233,0 0.6096,0.19473 0.2286,0.19473 0.2286,0.54187 v 1.20226 h 0.3048 v 0.29634 z m -1.007534,-0.23284 q 0.131234,0 0.237067,-0.0296 0.110067,-0.0339 0.1905,-0.0847 0.08043,-0.055 0.122767,-0.127 0.04657,-0.0762 0.04657,-0.16086 v -0.35984 h -0.46567 q -0.3048,0 -0.4445,0.0847 -0.1397,0.0847 -0.1397,0.24553 v 0.0889 q 0,0.16934 0.118533,0.25824 0.122767,0.0847 0.334433,0.0847 z"
         style="font-size:16px;line-height:1.25;font-family:'IBM Plex Mono';-inkscape-font-specification:'IBM Plex Mono, Normal';baseline-shift:baseline;stroke-width:0.264583;stroke-linejoin:round"
         id="path20466" />
      <path
         d="m 48.904319,128.33389 q -0.249767,0 -0.3683,-0.1397 -0.1143,-0.1397 -0.1143,-0.35984 v -1.397 h -0.728134 v -0.28786 h 0.541867 q 0.110067,0 0.1524,-0.0423 0.04657,-0.0466 0.04657,-0.15663 v -0.5715 h 0.325966 v 0.77047 h 0.994834 v 0.28786 h -0.994834 v 1.60867 h 0.994834 v 0.28787 z"
         style="font-size:16px;line-height:1.25;font-family:'IBM Plex Mono';-inkscape-font-specification:'IBM Plex Mono, Normal';baseline-shift:baseline;stroke-width:0.264583;stroke-linejoin:round"
         id="path20468" />
    </g>
    <g
       id="g30760">
      <path
         style="fill:none;stroke:#000000;stroke-width:0.264583px;stroke-linecap:butt;stroke-linejoin:miter;stroke-opacity:1"
         d="m 50.220935,135.90664 7.748161,2.59772"
         id="path14752" />
      <path
         style="fill:none;stroke:#000000;stroke-width:0.264583px;stroke-linecap:butt;stroke-linejoin:miter;stroke-opacity:1"
         d="M 50.333261,135.90664 42.5851,138.50436"
         id="path14754" />
    </g>
    <g
       id="g30747">
      <path
         style="fill:none;stroke:#000000;stroke-width:0.264583px;stroke-linecap:butt;stroke-linejoin:miter;stroke-opacity:1"
         d="m 42.565358,129.85897 7.748161,2.59772"
         id="path14750" />
      <path
         style="fill:none;stroke:#000000;stroke-width:0.264583px;stroke-linecap:butt;stroke-linejoin:miter;stroke-opacity:1"
         d="m 42.650962,129.85897 -7.748161,2.59772"
         id="path14768" />
    </g>
    <g
       id="g30756">
      <path
         d="m 43.987652,135.33912 q -0.237067,0 -0.423333,-0.0804 -0.182033,-0.0847 -0.309033,-0.23283 -0.127,-0.14817 -0.194733,-0.35984 -0.0635,-0.21166 -0.0635,-0.4699 0,-0.25823 0.06773,-0.4699 0.06773,-0.21166 0.194733,-0.35983 0.127,-0.1524 0.309033,-0.23283 0.182033,-0.0804 0.414867,-0.0804 0.317499,0 0.516466,0.1397 0.198966,0.1397 0.2921,0.36407 l -0.270934,0.14393 q -0.05927,-0.16933 -0.198966,-0.26246 -0.135467,-0.0931 -0.338666,-0.0931 -0.148167,0 -0.2667,0.0508 -0.1143,0.0466 -0.194733,0.13547 -0.08043,0.0889 -0.122767,0.21167 -0.0381,0.12276 -0.0381,0.2667 v 0.37253 q 0,0.14393 0.0381,0.2667 0.04233,0.12277 0.122767,0.21167 0.08043,0.0889 0.198966,0.1397 0.118533,0.0466 0.270933,0.0466 0.220133,0 0.364067,-0.1016 0.143933,-0.1016 0.228599,-0.2794 l 0.2413,0.1651 q -0.09737,0.22014 -0.3048,0.36407 -0.203199,0.14393 -0.533399,0.14393 z"
         style="font-size:4.23333px;line-height:1.25;font-family:'IBM Plex Mono';-inkscape-font-specification:'IBM Plex Mono, Normal';baseline-shift:baseline;stroke-width:0.264583;stroke-linejoin:round"
         id="path20471" />
      <path
         d="m 46.451451,135.33912 q -0.228599,0 -0.414866,-0.0804 -0.182033,-0.0804 -0.313266,-0.2286 -0.127,-0.1524 -0.194733,-0.35983 -0.06773,-0.21167 -0.06773,-0.47414 0,-0.25823 0.06773,-0.4699 0.06773,-0.21166 0.194733,-0.35983 0.131233,-0.1524 0.313266,-0.23283 0.186267,-0.0804 0.414866,-0.0804 0.2286,0 0.410633,0.0804 0.186267,0.0804 0.313267,0.23283 0.131233,0.14817 0.198966,0.35983 0.06773,0.21167 0.06773,0.4699 0,0.26247 -0.06773,0.47414 -0.06773,0.20743 -0.198966,0.35983 -0.127,0.14817 -0.313267,0.2286 -0.182033,0.0804 -0.410633,0.0804 z m 0,-0.2921 q 0.283634,0 0.4572,-0.16933 0.173567,-0.16933 0.173567,-0.52493 v -0.31327 q 0,-0.3556 -0.173567,-0.52493 -0.173566,-0.16934 -0.4572,-0.16934 -0.283633,0 -0.457199,0.16934 -0.173567,0.16933 -0.173567,0.52493 v 0.31327 q 0,0.3556 0.173567,0.52493 0.173566,0.16933 0.457199,0.16933 z"
         style="font-size:4.23333px;line-height:1.25;font-family:'IBM Plex Mono';-inkscape-font-specification:'IBM Plex Mono, Normal';baseline-shift:baseline;stroke-width:0.264583;stroke-linejoin:round"
         id="path20473" />
      <path
         d="m 48.136318,135.28832 v -2.1844 h 0.338667 v 0.3556 h 0.01693 q 0.03387,-0.0804 0.08467,-0.1524 0.0508,-0.0762 0.122766,-0.13123 0.0762,-0.055 0.1778,-0.0889 0.1016,-0.0339 0.237066,-0.0339 0.3429,0 0.550333,0.22014 0.207434,0.2159 0.207434,0.61383 v 1.40123 h -0.338667 v -1.34196 q 0,-0.30057 -0.131233,-0.4445 -0.131233,-0.14817 -0.385233,-0.14817 -0.1016,0 -0.198967,0.0254 -0.09737,0.0254 -0.173566,0.0762 -0.0762,0.0508 -0.122767,0.13123 -0.04657,0.0804 -0.04657,0.18627 v 1.51553 z"
         style="font-size:4.23333px;line-height:1.25;font-family:'IBM Plex Mono';-inkscape-font-specification:'IBM Plex Mono, Normal';baseline-shift:baseline;stroke-width:0.264583;stroke-linejoin:round"
         id="path20475" />
      <path
         d="m 51.60765,135.33912 q -0.237066,0 -0.423333,-0.0804 -0.182033,-0.0847 -0.309033,-0.23283 -0.127,-0.14817 -0.194733,-0.35984 -0.0635,-0.21166 -0.0635,-0.4699 0,-0.25823 0.06773,-0.4699 0.06773,-0.21166 0.194734,-0.35983 0.127,-0.1524 0.309033,-0.23283 0.182033,-0.0804 0.414866,-0.0804 0.3175,0 0.516466,0.1397 0.198967,0.1397 0.2921,0.36407 l -0.270933,0.14393 q -0.05927,-0.16933 -0.198967,-0.26246 -0.135466,-0.0931 -0.338666,-0.0931 -0.148167,0 -0.2667,0.0508 -0.1143,0.0466 -0.194733,0.13547 -0.08043,0.0889 -0.122766,0.21167 -0.0381,0.12276 -0.0381,0.2667 v 0.37253 q 0,0.14393 0.0381,0.2667 0.04233,0.12277 0.122766,0.21167 0.08043,0.0889 0.198967,0.1397 0.118533,0.0466 0.270933,0.0466 0.220133,0 0.364066,-0.1016 0.143933,-0.1016 0.2286,-0.2794 l 0.2413,0.1651 q -0.09737,0.22014 -0.3048,0.36407 -0.2032,0.14393 -0.5334,0.14393 z"
         style="font-size:4.23333px;line-height:1.25;font-family:'IBM Plex Mono';-inkscape-font-specification:'IBM Plex Mono, Normal';baseline-shift:baseline;stroke-width:0.264583;stroke-linejoin:round"
         id="path20477" />
      <path
         d="m 54.896949,135.28832 q -0.198966,0 -0.283633,-0.1016 -0.08467,-0.1016 -0.105833,-0.254 h -0.02117 q -0.07197,0.1905 -0.232833,0.30057 -0.156633,0.10583 -0.423333,0.10583 -0.3429,0 -0.546099,-0.1778 -0.2032,-0.1778 -0.2032,-0.48683 0,-0.3048 0.220133,-0.4699 0.224366,-0.1651 0.719666,-0.1651 h 0.465666 v -0.2159 q 0,-0.2413 -0.135466,-0.35983 -0.135467,-0.12277 -0.385233,-0.12277 -0.220133,0 -0.359833,0.0889 -0.1397,0.0847 -0.224367,0.23283 l -0.2286,-0.16933 q 0.04233,-0.0847 0.1143,-0.1651 0.07197,-0.0804 0.1778,-0.1397 0.105833,-0.0635 0.2413,-0.0974 0.135466,-0.0381 0.300566,-0.0381 0.385233,0 0.6096,0.19474 0.2286,0.19473 0.2286,0.54186 v 1.20227 h 0.304799 v 0.29633 z m -1.007532,-0.23283 q 0.131233,0 0.237066,-0.0296 0.110067,-0.0339 0.1905,-0.0847 0.08043,-0.055 0.122767,-0.127 0.04657,-0.0762 0.04657,-0.16087 v -0.35983 h -0.465666 q -0.3048,0 -0.4445,0.0847 -0.1397,0.0847 -0.1397,0.24553 v 0.0889 q 0,0.16933 0.118534,0.25823 0.122766,0.0847 0.334433,0.0847 z"
         style="font-size:4.23333px;line-height:1.25;font-family:'IBM Plex Mono';-inkscape-font-specification:'IBM Plex Mono, Normal';baseline-shift:baseline;stroke-width:0.264583;stroke-linejoin:round"
         id="path20479" />
      <path
         d="m 56.717282,135.28832 q -0.249766,0 -0.3683,-0.1397 -0.114299,-0.1397 -0.114299,-0.35983 v -1.397 H 55.50655 v -0.28787 h 0.541866 q 0.110067,0 0.1524,-0.0423 0.04657,-0.0466 0.04657,-0.15663 v -0.5715 h 0.325966 v 0.77046 h 0.994832 v 0.28787 h -0.994832 v 1.60867 h 0.994832 v 0.28786 z"
         style="font-size:4.23333px;line-height:1.25;font-family:'IBM Plex Mono';-inkscape-font-specification:'IBM Plex Mono, Normal';baseline-shift:baseline;stroke-width:0.264583;stroke-linejoin:round"
         id="path20481" />
      <path
         d="M 35.030151,135.26042 H 33.08584 v -0.35882 l 0.972156,-0.87619 q 0.212789,-0.19193 0.350476,-0.3922 0.137687,-0.20445 0.137687,-0.42975 v -0.0501 q 0,-0.26286 -0.137687,-0.40472 -0.137687,-0.14603 -0.408889,-0.14603 -0.26703,0 -0.413062,0.13769 -0.141859,0.13351 -0.212789,0.35882 l -0.312926,-0.11683 q 0.04172,-0.12934 0.112653,-0.25034 0.0751,-0.12517 0.187756,-0.22113 0.112653,-0.096 0.271202,-0.15438 0.162721,-0.0584 0.37551,-0.0584 0.216962,0 0.383856,0.0626 0.171066,0.0626 0.283719,0.17523 0.116825,0.11266 0.175238,0.26703 0.06258,0.15438 0.06258,0.33796 0,0.1669 -0.05007,0.31293 -0.0459,0.14603 -0.133515,0.27955 -0.08345,0.13351 -0.204444,0.26285 -0.116826,0.12517 -0.262858,0.25034 l -0.813606,0.7093 h 1.581317 z"
         style="font-size:4.17234px;line-height:1.25;font-family:'IBM Plex Mono';-inkscape-font-specification:'IBM Plex Mono, Normal';baseline-shift:baseline;stroke-width:0.347695;stroke-linejoin:round"
         id="path30695" />
    </g>
    <g
       id="g30767">
      <path
         d="m 39.22846,141.57814 h -0.01693 q -0.211667,0.4064 -0.6731,0.4064 -0.402166,0 -0.630766,-0.30057 -0.224366,-0.30056 -0.224366,-0.84243 0,-0.54187 0.224366,-0.84243 0.2286,-0.30057 0.630766,-0.30057 0.461433,0 0.6731,0.4064 h 0.01693 v -1.30387 h 0.338666 v 3.13267 H 39.22846 Z m -0.5588,0.10583 q 0.1143,0 0.2159,-0.0296 0.1016,-0.0296 0.1778,-0.0847 0.0762,-0.0593 0.118533,-0.1397 0.04657,-0.0847 0.04657,-0.19473 v -0.7874 q 0,-0.11007 -0.04657,-0.1905 -0.04233,-0.0847 -0.118533,-0.1397 -0.0762,-0.0593 -0.1778,-0.0889 -0.1016,-0.0296 -0.2159,-0.0296 -0.296333,0 -0.461432,0.18203 -0.160867,0.1778 -0.160867,0.47413 v 0.37254 q 0,0.29633 0.160867,0.47836 0.165099,0.1778 0.461432,0.1778 z"
         style="font-size:4.23333px;line-height:1.25;font-family:'IBM Plex Mono';-inkscape-font-specification:'IBM Plex Mono, Normal';baseline-shift:baseline;stroke-width:0.264583;stroke-linejoin:round"
         id="path20484" />
      <path
         d="m 40.295261,141.64587 h 0.639232 v -1.60866 h -0.639232 v -0.28787 h 0.977899 v 0.55033 h 0.02117 q 0.06773,-0.25823 0.253999,-0.40216 0.1905,-0.14817 0.4826,-0.14817 h 0.3048 v 0.33867 h -0.410633 q -0.2921,0 -0.474133,0.16933 -0.1778,0.16933 -0.1778,0.4445 v 0.94403 h 0.846666 v 0.28787 h -1.824568 z"
         style="font-size:4.23333px;line-height:1.25;font-family:'IBM Plex Mono';-inkscape-font-specification:'IBM Plex Mono, Normal';baseline-shift:baseline;stroke-width:0.264583;stroke-linejoin:round"
         id="path20486" />
      <path
         d="m 44.604792,141.93374 q -0.198966,0 -0.283633,-0.1016 -0.08467,-0.1016 -0.105833,-0.254 h -0.02117 q -0.07197,0.1905 -0.232833,0.30057 -0.156633,0.10583 -0.423333,0.10583 -0.3429,0 -0.5461,-0.1778 -0.203199,-0.1778 -0.203199,-0.48683 0,-0.3048 0.220133,-0.4699 0.224366,-0.1651 0.719666,-0.1651 h 0.465666 v -0.2159 q 0,-0.2413 -0.135467,-0.35984 -0.135466,-0.12276 -0.385233,-0.12276 -0.220133,0 -0.359833,0.0889 -0.139699,0.0847 -0.224366,0.23283 l -0.2286,-0.16933 q 0.04233,-0.0847 0.1143,-0.1651 0.07197,-0.0804 0.1778,-0.1397 0.105833,-0.0635 0.2413,-0.0974 0.135466,-0.0381 0.300566,-0.0381 0.385233,0 0.6096,0.19473 0.228599,0.19474 0.228599,0.54187 v 1.20227 h 0.3048 v 0.29633 z m -1.007532,-0.23283 q 0.131233,0 0.237066,-0.0296 0.110067,-0.0339 0.1905,-0.0847 0.08043,-0.055 0.122766,-0.127 0.04657,-0.0762 0.04657,-0.16087 v -0.35983 h -0.465666 q -0.3048,0 -0.4445,0.0847 -0.1397,0.0847 -0.1397,0.24554 v 0.0889 q 0,0.16933 0.118533,0.25823 0.122767,0.0847 0.334434,0.0847 z"
         style="font-size:4.23333px;line-height:1.25;font-family:'IBM Plex Mono';-inkscape-font-specification:'IBM Plex Mono, Normal';baseline-shift:baseline;stroke-width:0.264583;stroke-linejoin:round"
         id="path20488" />
      <path
         d="m 45.176293,139.74934 h 0.300567 l 0.249766,1.88807 h 0.0381 l 0.372533,-1.88807 h 0.372533 l 0.372533,1.88807 h 0.0381 l 0.249766,-1.88807 h 0.2921 l -0.334433,2.1844 h -0.440266 l -0.347133,-1.8288 h -0.03387 l -0.355599,1.8288 h -0.440267 z"
         style="font-size:4.23333px;line-height:1.25;font-family:'IBM Plex Mono';-inkscape-font-specification:'IBM Plex Mono, Normal';baseline-shift:baseline;stroke-width:0.264583;stroke-linejoin:round"
         id="path20490" />
      <path
         style="fill:none;stroke:#000000;stroke-width:0.264583px;stroke-linecap:butt;stroke-linejoin:miter;stroke-opacity:1"
         d="m 42.566352,142.85822 0.0037,2.59772"
         id="path14792"
         sodipodi:nodetypes="cc" />
    </g>
    <g
       id="g30770">
      <path
         style="fill:none;stroke:#000000;stroke-width:0.7;stroke-linecap:butt;stroke-linejoin:miter;stroke-dasharray:none;stroke-opacity:1"
         d="m 40.04977,148.15026 5.230261,0.007"
         id="path3473"
         sodipodi:nodetypes="cc" />
    </g>
    <g
       id="g30781">
      <path
         style="fill:none;stroke:#000000;stroke-width:0.264583px;stroke-linecap:butt;stroke-linejoin:miter;stroke-opacity:1"
         d="m 57.952911,143.15499 0.0037,2.59772"
         id="path15918"
         sodipodi:nodetypes="cc" />
      <path
         d="m 56.162628,141.77274 q 0,0.0165 -0.0083,0.0289 -0.0083,0.0103 -0.02687,0.0186 -0.0186,0.008 -0.05168,0.0124 -0.03307,0.004 -0.08268,0.004 -0.05168,0 -0.08475,-0.004 -0.03307,-0.004 -0.05374,-0.0124 -0.0186,-0.008 -0.02687,-0.0186 -0.0083,-0.0124 -0.0083,-0.0289 v -1.13068 q 0,-0.11782 -0.02067,-0.21497 -0.02067,-0.0971 -0.06615,-0.16743 -0.04548,-0.0703 -0.115755,-0.10749 -0.07028,-0.0372 -0.165364,-0.0372 -0.117822,0 -0.237712,0.0909 -0.117822,0.091 -0.260449,0.26665 v 1.30018 q 0,0.0165 -0.0083,0.0289 -0.0083,0.0103 -0.02894,0.0186 -0.0186,0.008 -0.05168,0.0124 -0.03307,0.004 -0.08268,0.004 -0.04754,0 -0.08268,-0.004 -0.03307,-0.004 -0.05374,-0.0124 -0.0186,-0.008 -0.02687,-0.0186 -0.0062,-0.0124 -0.0062,-0.0289 v -1.13068 q 0,-0.11782 -0.02274,-0.21497 -0.02274,-0.0971 -0.06821,-0.16743 -0.04547,-0.0703 -0.115755,-0.10749 -0.06821,-0.0372 -0.163298,-0.0372 -0.117822,0 -0.237711,0.0909 -0.119889,0.091 -0.260449,0.26665 v 1.30018 q 0,0.0165 -0.0083,0.0289 -0.0083,0.0103 -0.02687,0.0186 -0.0186,0.008 -0.05168,0.0124 -0.03307,0.004 -0.08475,0.004 -0.04961,0 -0.08268,-0.004 -0.03307,-0.004 -0.05374,-0.0124 -0.0186,-0.008 -0.02687,-0.0186 -0.0062,-0.0124 -0.0062,-0.0289 v -1.86035 q 0,-0.0165 0.0062,-0.0269 0.0062,-0.0124 0.02481,-0.0207 0.0186,-0.0103 0.04754,-0.0124 0.02894,-0.004 0.07648,-0.004 0.04548,0 0.07441,0.004 0.03101,0.002 0.04754,0.0124 0.01654,0.008 0.02274,0.0207 0.0083,0.0103 0.0083,0.0269 v 0.24598 q 0.157096,-0.1757 0.303857,-0.25631 0.148828,-0.0827 0.299723,-0.0827 0.115755,0 0.206706,0.0269 0.09302,0.0269 0.163297,0.0765 0.07028,0.0475 0.119889,0.11575 0.04961,0.0661 0.08268,0.14883 0.09302,-0.10129 0.175699,-0.17157 0.08475,-0.0703 0.161231,-0.11368 0.07855,-0.0434 0.150895,-0.062 0.07441,-0.0207 0.148828,-0.0207 0.179834,0 0.30179,0.0641 0.121956,0.062 0.19637,0.16743 0.07648,0.10542 0.107487,0.24805 0.03307,0.14056 0.03307,0.29766 z"
         id="path30686"
         style="font-size:4.23333px;line-height:1.25;font-family:Calibri;-inkscape-font-specification:'Calibri, Normal';baseline-shift:baseline;stroke-width:0.264583;stroke-linejoin:round" />
      <path
         d="m 58.514937,140.8219 q 0,0.22737 -0.05995,0.41961 -0.05994,0.19017 -0.179833,0.32866 -0.117823,0.13849 -0.297656,0.21704 -0.177767,0.0765 -0.413411,0.0765 -0.229444,0 -0.401009,-0.0682 -0.169499,-0.0682 -0.283187,-0.19844 -0.113688,-0.13022 -0.169498,-0.31626 -0.05581,-0.18603 -0.05581,-0.42168 0,-0.22737 0.05788,-0.41754 0.05994,-0.19224 0.177766,-0.33073 0.11989,-0.13849 0.297656,-0.21498 0.177767,-0.0765 0.415479,-0.0765 0.229443,0 0.398941,0.0682 0.171566,0.0682 0.285254,0.19843 0.113688,0.13023 0.169499,0.31626 0.05788,0.18604 0.05788,0.41962 z m -0.359668,0.0227 q 0,-0.15089 -0.02894,-0.28525 -0.02687,-0.13436 -0.09095,-0.23565 -0.06408,-0.10128 -0.173632,-0.15916 -0.109554,-0.0599 -0.272852,-0.0599 -0.150895,0 -0.260449,0.0537 -0.107487,0.0537 -0.177767,0.15296 -0.07028,0.0971 -0.105419,0.23151 -0.03307,0.13436 -0.03307,0.29352 0,0.15297 0.02687,0.28733 0.02894,0.13435 0.09302,0.23564 0.06615,0.0992 0.1757,0.15916 0.109554,0.0579 0.272851,0.0579 0.148828,0 0.258382,-0.0537 0.109554,-0.0537 0.179834,-0.1509 0.07028,-0.0972 0.103353,-0.23151 0.03307,-0.13436 0.03307,-0.29559 z"
         id="path30688"
         style="font-size:4.23333px;line-height:1.25;font-family:Calibri;-inkscape-font-specification:'Calibri, Normal';baseline-shift:baseline;stroke-width:0.264583;stroke-linejoin:round" />
      <path
         d="m 60.524115,139.90826 q 0,0.008 -0.0021,0.0186 0,0.008 -0.0021,0.0186 -0.0021,0.0103 -0.0062,0.0227 -0.0021,0.0124 -0.0062,0.0269 l -0.634586,1.76734 q -0.0083,0.0227 -0.02274,0.0372 -0.0124,0.0145 -0.03927,0.0227 -0.02687,0.008 -0.06821,0.0103 -0.04134,0.004 -0.103353,0.004 -0.06201,0 -0.103353,-0.004 -0.04134,-0.004 -0.06821,-0.0124 -0.0248,-0.008 -0.03927,-0.0227 -0.01447,-0.0145 -0.02274,-0.0351 l -0.632519,-1.76734 q -0.0083,-0.0248 -0.01447,-0.0434 -0.0041,-0.0186 -0.0062,-0.0269 0,-0.0103 0,-0.0165 0,-0.0165 0.0083,-0.0289 0.0083,-0.0124 0.02687,-0.0186 0.02067,-0.008 0.05168,-0.0103 0.03307,-0.002 0.08062,-0.002 0.05994,0 0.09508,0.004 0.03721,0.002 0.05581,0.0103 0.02067,0.008 0.02894,0.0207 0.01034,0.0124 0.0186,0.031 l 0.525032,1.53375 0.0083,0.0248 0.0062,-0.0248 0.518831,-1.53375 q 0.0041,-0.0186 0.01447,-0.031 0.01033,-0.0124 0.02894,-0.0207 0.02067,-0.008 0.05374,-0.0103 0.03514,-0.004 0.09095,-0.004 0.04754,0 0.07855,0.002 0.03101,0.002 0.04754,0.0103 0.0186,0.008 0.02481,0.0207 0.0083,0.0103 0.0083,0.0269 z"
         id="path30690"
         style="font-size:4.23333px;line-height:1.25;font-family:Calibri;-inkscape-font-specification:'Calibri, Normal';baseline-shift:baseline;stroke-width:0.264583;stroke-linejoin:round" />
      <path
         d="m 62.456812,140.76195 q 0,0.0806 -0.04134,0.11576 -0.03927,0.0331 -0.09095,0.0331 H 61.10496 q 0,0.15503 0.03101,0.27905 0.03101,0.12402 0.103352,0.21291 0.07235,0.0889 0.188102,0.13642 0.115755,0.0476 0.283187,0.0476 0.132292,0 0.235644,-0.0207 0.103353,-0.0227 0.177767,-0.0496 0.07648,-0.0269 0.124023,-0.0476 0.04961,-0.0227 0.07441,-0.0227 0.01447,0 0.0248,0.008 0.0124,0.006 0.0186,0.0207 0.0062,0.0145 0.0083,0.0414 0.0041,0.0248 0.0041,0.062 0,0.0269 -0.0021,0.0475 -0.0021,0.0186 -0.0062,0.0351 -0.0021,0.0145 -0.01034,0.0269 -0.0062,0.0124 -0.0186,0.0248 -0.01033,0.0103 -0.06615,0.0372 -0.05581,0.0248 -0.144694,0.0496 -0.08888,0.0248 -0.206705,0.0434 -0.115755,0.0207 -0.248047,0.0207 -0.229443,0 -0.403076,-0.0641 -0.171565,-0.0641 -0.289388,-0.19017 -0.117822,-0.12609 -0.177766,-0.31626 -0.05995,-0.19017 -0.05995,-0.44235 0,-0.23977 0.06201,-0.42994 0.06201,-0.19224 0.177766,-0.32453 0.117823,-0.13436 0.283187,-0.20464 0.165365,-0.0724 0.370003,-0.0724 0.219108,0 0.37207,0.0703 0.155029,0.0703 0.254248,0.19017 0.09922,0.11782 0.144694,0.27905 0.04754,0.15917 0.04754,0.34107 z m -0.343131,-0.10129 q 0.0062,-0.26871 -0.119889,-0.42167 -0.124024,-0.15297 -0.370003,-0.15297 -0.126091,0 -0.221175,0.0476 -0.09508,0.0475 -0.159164,0.12609 -0.06408,0.0785 -0.09922,0.18396 -0.03514,0.10336 -0.03927,0.21704 z"
         id="path30692"
         style="font-size:4.23333px;line-height:1.25;font-family:Calibri;-inkscape-font-specification:'Calibri, Normal';baseline-shift:baseline;stroke-width:0.264583;stroke-linejoin:round" />
      <path
         d="m 54.724981,148.97665 h -0.01693 q -0.211666,0.40639 -0.673099,0.40639 -0.402166,0 -0.630766,-0.30056 -0.224367,-0.30057 -0.224367,-0.84243 0,-0.54187 0.224367,-0.84244 0.2286,-0.30056 0.630766,-0.30056 0.461433,0 0.673099,0.4064 h 0.01693 v -1.30387 h 0.338666 v 3.13266 h -0.338666 z m -0.5588,0.10583 q 0.1143,0 0.2159,-0.0296 0.1016,-0.0296 0.1778,-0.0847 0.0762,-0.0593 0.118533,-0.1397 0.04657,-0.0847 0.04657,-0.19473 v -0.7874 q 0,-0.11007 -0.04657,-0.1905 -0.04233,-0.0847 -0.118533,-0.1397 -0.0762,-0.0593 -0.1778,-0.0889 -0.1016,-0.0296 -0.2159,-0.0296 -0.296333,0 -0.461433,0.18204 -0.160866,0.1778 -0.160866,0.47413 v 0.37253 q 0,0.29634 0.160866,0.47837 0.1651,0.1778 0.461433,0.1778 z"
         style="font-size:4.23333px;line-height:1.25;font-family:'IBM Plex Mono';-inkscape-font-specification:'IBM Plex Mono, Normal';baseline-shift:baseline;stroke-width:0.264583;stroke-linejoin:round"
         id="path30677" />
      <path
         d="m 56.735814,149.38304 q -0.2286,0 -0.414866,-0.0804 -0.182033,-0.0804 -0.313267,-0.2286 -0.127,-0.1524 -0.194733,-0.35983 -0.06773,-0.21167 -0.06773,-0.47413 0,-0.25824 0.06773,-0.4699 0.06773,-0.21167 0.194733,-0.35984 0.131234,-0.1524 0.313267,-0.23283 0.186266,-0.0804 0.414866,-0.0804 0.2286,0 0.410633,0.0804 0.186266,0.0804 0.313266,0.23283 0.131234,0.14817 0.198967,0.35984 0.06773,0.21166 0.06773,0.4699 0,0.26246 -0.06773,0.47413 -0.06773,0.20743 -0.198967,0.35983 -0.127,0.14817 -0.313266,0.2286 -0.182033,0.0804 -0.410633,0.0804 z m 0,-0.29209 q 0.283633,0 0.4572,-0.16934 0.173566,-0.16933 0.173566,-0.52493 v -0.31327 q 0,-0.3556 -0.173566,-0.52493 -0.173567,-0.16933 -0.4572,-0.16933 -0.283633,0 -0.4572,0.16933 -0.173566,0.16933 -0.173566,0.52493 v 0.31327 q 0,0.3556 0.173566,0.52493 0.173567,0.16934 0.4572,0.16934 z"
         style="font-size:4.23333px;line-height:1.25;font-family:'IBM Plex Mono';-inkscape-font-specification:'IBM Plex Mono, Normal';baseline-shift:baseline;stroke-width:0.264583;stroke-linejoin:round"
         id="path30679" />
      <path
         d="m 58.132814,147.14785 h 0.300567 l 0.249766,1.88806 h 0.0381 l 0.372533,-1.88806 h 0.372533 l 0.372533,1.88806 h 0.0381 l 0.249767,-1.88806 h 0.2921 l -0.334434,2.18439 h -0.440266 l -0.347133,-1.82879 h -0.03387 l -0.355599,1.82879 h -0.440267 z"
         style="font-size:4.23333px;line-height:1.25;font-family:'IBM Plex Mono';-inkscape-font-specification:'IBM Plex Mono, Normal';baseline-shift:baseline;stroke-width:0.264583;stroke-linejoin:round"
         id="path30681" />
      <path
         d="m 60.96068,149.33224 v -2.18439 h 0.338667 v 0.3556 h 0.01693 q 0.03387,-0.0804 0.08467,-0.1524 0.0508,-0.0762 0.122766,-0.13124 0.0762,-0.055 0.1778,-0.0889 0.1016,-0.0339 0.237067,-0.0339 0.342899,0 0.550332,0.22013 0.207434,0.2159 0.207434,0.61383 v 1.40123 h -0.338667 v -1.34196 q 0,-0.30057 -0.131233,-0.4445 -0.131233,-0.14817 -0.385233,-0.14817 -0.1016,0 -0.198967,0.0254 -0.09737,0.0254 -0.173566,0.0762 -0.0762,0.0508 -0.122767,0.13124 -0.04657,0.0804 -0.04657,0.18626 v 1.51553 z"
         style="font-size:4.23333px;line-height:1.25;font-family:'IBM Plex Mono';-inkscape-font-specification:'IBM Plex Mono, Normal';baseline-shift:baseline;stroke-width:0.264583;stroke-linejoin:round"
         id="path30683" />
    </g>
  </g>
</svg>
