<?xml version="1.0" encoding="UTF-8" standalone="no"?>
<!-- Created with Inkscape (http://www.inkscape.org/) -->

<svg
   width="30.334938mm"
   height="25.382399mm"
   viewBox="0 0 30.334938 25.382399"
   version="1.1"
   id="svg14134"
   inkscape:version="1.2.1 (9c6d41e410, 2022-07-14, custom)"
   sodipodi:docname="program1.svg"
   xmlns:inkscape="http://www.inkscape.org/namespaces/inkscape"
   xmlns:sodipodi="http://sodipodi.sourceforge.net/DTD/sodipodi-0.dtd"
   xmlns="http://www.w3.org/2000/svg"
   xmlns:svg="http://www.w3.org/2000/svg">
  <sodipodi:namedview
     id="namedview14136"
     pagecolor="#ffffff"
     bordercolor="#666666"
     borderopacity="1.0"
     inkscape:showpageshadow="2"
     inkscape:pageopacity="0.0"
     inkscape:pagecheckerboard="0"
     inkscape:deskcolor="#d1d1d1"
     inkscape:document-units="mm"
     showgrid="false"
     inkscape:zoom="5.0530517"
     inkscape:cx="12.764564"
     inkscape:cy="49.771903"
     inkscape:window-width="1916"
     inkscape:window-height="1076"
     inkscape:window-x="0"
     inkscape:window-y="0"
     inkscape:window-maximized="1"
     inkscape:current-layer="g15924" />
  <defs
     id="defs14131" />
  <g
     inkscape:label="Layer 1"
     inkscape:groupmode="layer"
     id="layer1"
     transform="translate(-12.248961,-135.19815)">
    <g
       id="g15924"
       transform="translate(0.1387218)">
      <g
         id="g29114">
        <path
           d="m 14.75322,137.86515 h 0.639233 v -1.60867 H 14.75322 v -0.28786 h 0.9779 v 0.55033 h 0.02117 q 0.06773,-0.25823 0.254,-0.40217 0.1905,-0.14816 0.4826,-0.14816 h 0.3048 v 0.33866 h -0.410634 q -0.2921,0 -0.474133,0.16934 -0.1778,0.16933 -0.1778,0.4445 v 0.94403 h 0.846667 v 0.28787 h -1.82457 z"
           style="font-size:16px;line-height:1.25;font-family:'IBM Plex Mono';-inkscape-font-specification:'IBM Plex Mono, Normal';baseline-shift:baseline;stroke-width:0.264583;stroke-linejoin:round"
           id="path20458" />
        <path
           d="m 18.275355,138.20382 q -0.237067,0 -0.427567,-0.0804 -0.186266,-0.0804 -0.321733,-0.2286 -0.131233,-0.1524 -0.2032,-0.35983 -0.07197,-0.21167 -0.07197,-0.4699 0,-0.26247 0.07197,-0.47413 0.0762,-0.21167 0.207433,-0.35984 0.131234,-0.1524 0.313267,-0.23283 0.186267,-0.0804 0.410633,-0.0804 0.220134,0 0.397934,0.0804 0.182033,0.0804 0.309033,0.22437 0.127,0.1397 0.194733,0.33443 0.06773,0.19473 0.06773,0.42757 v 0.16086 h -1.617134 v 0.1016 q 0,0.14394 0.04657,0.2667 0.04657,0.12277 0.131233,0.21167 0.0889,0.0889 0.211667,0.1397 0.127,0.0466 0.2794,0.0466 0.220133,0 0.381,-0.1016 0.160867,-0.1016 0.245533,-0.2794 l 0.249767,0.16933 q -0.09737,0.22013 -0.325967,0.36407 -0.224366,0.1397 -0.550333,0.1397 z m -0.02117,-2.0066 q -0.1397,0 -0.258233,0.0508 -0.118533,0.0508 -0.207433,0.1397 -0.08467,0.0889 -0.135467,0.21166 -0.04657,0.11854 -0.04657,0.26247 v 0.0296 h 1.253067 v -0.0466 q 0,-0.14394 -0.04657,-0.26247 -0.04233,-0.11853 -0.122766,-0.2032 -0.0762,-0.0889 -0.1905,-0.13547 -0.110067,-0.0466 -0.245534,-0.0466 z"
           style="font-size:16px;line-height:1.25;font-family:'IBM Plex Mono';-inkscape-font-specification:'IBM Plex Mono, Normal';baseline-shift:baseline;stroke-width:0.264583;stroke-linejoin:round"
           id="path20460" />
        <path
           d="m 19.909423,135.96862 h 0.338667 v 0.3556 h 0.01693 q 0.211667,-0.4064 0.6731,-0.4064 0.402167,0 0.626534,0.30056 0.2286,0.30057 0.2286,0.84244 0,0.54186 -0.2286,0.84243 -0.224367,0.30057 -0.626534,0.30057 -0.461433,0 -0.6731,-0.4064 h -0.01693 v 1.20226 h -0.338667 z m 0.897467,1.93463 q 0.296333,0 0.4572,-0.1778 0.1651,-0.18203 0.1651,-0.47837 v -0.37253 q 0,-0.29633 -0.1651,-0.47413 -0.160867,-0.18204 -0.4572,-0.18204 -0.1143,0 -0.2159,0.0296 -0.1016,0.0296 -0.1778,0.0889 -0.0762,0.055 -0.122767,0.1397 -0.04233,0.0804 -0.04233,0.1905 v 0.7874 q 0,0.11006 0.04233,0.19473 0.04657,0.0804 0.122767,0.1397 0.0762,0.055 0.1778,0.0847 0.1016,0.0296 0.2159,0.0296 z"
           style="font-size:16px;line-height:1.25;font-family:'IBM Plex Mono';-inkscape-font-specification:'IBM Plex Mono, Normal';baseline-shift:baseline;stroke-width:0.264583;stroke-linejoin:round"
           id="path20462" />
        <path
           d="m 23.355358,138.20382 q -0.237066,0 -0.427566,-0.0804 -0.186267,-0.0804 -0.321734,-0.2286 -0.131233,-0.1524 -0.2032,-0.35983 -0.07197,-0.21167 -0.07197,-0.4699 0,-0.26247 0.07197,-0.47413 0.0762,-0.21167 0.207434,-0.35984 0.131233,-0.1524 0.313266,-0.23283 0.186267,-0.0804 0.410634,-0.0804 0.220133,0 0.397933,0.0804 0.182033,0.0804 0.309033,0.22437 0.127,0.1397 0.194734,0.33443 0.06773,0.19473 0.06773,0.42757 v 0.16086 h -1.617133 v 0.1016 q 0,0.14394 0.04657,0.2667 0.04657,0.12277 0.131234,0.21167 0.0889,0.0889 0.211666,0.1397 0.127,0.0466 0.2794,0.0466 0.220134,0 0.381,-0.1016 0.160867,-0.1016 0.245534,-0.2794 l 0.249766,0.16933 q -0.09737,0.22013 -0.325966,0.36407 -0.224367,0.1397 -0.550334,0.1397 z m -0.02117,-2.0066 q -0.1397,0 -0.258234,0.0508 -0.118533,0.0508 -0.207433,0.1397 -0.08467,0.0889 -0.135467,0.21166 -0.04657,0.11854 -0.04657,0.26247 v 0.0296 h 1.253066 v -0.0466 q 0,-0.14394 -0.04657,-0.26247 -0.04233,-0.11853 -0.122767,-0.2032 -0.0762,-0.0889 -0.1905,-0.13547 -0.110067,-0.0466 -0.245533,-0.0466 z"
           style="font-size:16px;line-height:1.25;font-family:'IBM Plex Mono';-inkscape-font-specification:'IBM Plex Mono, Normal';baseline-shift:baseline;stroke-width:0.264583;stroke-linejoin:round"
           id="path20464" />
        <path
           d="m 26.68276,138.15302 q -0.198967,0 -0.283634,-0.1016 -0.08467,-0.1016 -0.105833,-0.254 h -0.02117 q -0.07197,0.1905 -0.232833,0.30056 -0.156633,0.10584 -0.423333,0.10584 -0.3429,0 -0.5461,-0.1778 -0.2032,-0.1778 -0.2032,-0.48684 0,-0.3048 0.220133,-0.4699 0.224367,-0.1651 0.719667,-0.1651 h 0.465666 v -0.2159 q 0,-0.2413 -0.135466,-0.35983 -0.135467,-0.12277 -0.385234,-0.12277 -0.220133,0 -0.359833,0.0889 -0.1397,0.0847 -0.224367,0.23284 l -0.2286,-0.16934 q 0.04233,-0.0847 0.1143,-0.1651 0.07197,-0.0804 0.1778,-0.1397 0.105834,-0.0635 0.2413,-0.0974 0.135467,-0.0381 0.300567,-0.0381 0.385233,0 0.6096,0.19473 0.2286,0.19473 0.2286,0.54187 v 1.20226 h 0.3048 v 0.29634 z m -1.007534,-0.23284 q 0.131234,0 0.237067,-0.0296 0.110067,-0.0339 0.1905,-0.0847 0.08043,-0.055 0.122767,-0.127 0.04657,-0.0762 0.04657,-0.16086 v -0.35984 h -0.46567 q -0.3048,0 -0.4445,0.0847 -0.1397,0.0847 -0.1397,0.24553 v 0.0889 q 0,0.16934 0.118533,0.25824 0.122767,0.0847 0.334433,0.0847 z"
           style="font-size:16px;line-height:1.25;font-family:'IBM Plex Mono';-inkscape-font-specification:'IBM Plex Mono, Normal';baseline-shift:baseline;stroke-width:0.264583;stroke-linejoin:round"
           id="path20466" />
        <path
           d="m 28.503096,138.15302 q -0.249767,0 -0.3683,-0.1397 -0.1143,-0.1397 -0.1143,-0.35984 v -1.397 h -0.728134 v -0.28786 h 0.541867 q 0.110067,0 0.1524,-0.0423 0.04657,-0.0466 0.04657,-0.15663 v -0.5715 h 0.325966 v 0.77047 h 0.994834 v 0.28786 h -0.994834 v 1.60867 h 0.994834 v 0.28787 z"
           style="font-size:16px;line-height:1.25;font-family:'IBM Plex Mono';-inkscape-font-specification:'IBM Plex Mono, Normal';baseline-shift:baseline;stroke-width:0.264583;stroke-linejoin:round"
           id="path20468" />
      </g>
      <g
         id="g29129">
        <path
           d="m 23.586429,145.15825 q -0.237067,0 -0.423333,-0.0804 -0.182033,-0.0847 -0.309033,-0.23283 -0.127,-0.14817 -0.194733,-0.35984 -0.0635,-0.21166 -0.0635,-0.4699 0,-0.25823 0.06773,-0.4699 0.06773,-0.21166 0.194733,-0.35983 0.127,-0.1524 0.309033,-0.23283 0.182033,-0.0804 0.414867,-0.0804 0.317499,0 0.516466,0.1397 0.198966,0.1397 0.2921,0.36407 l -0.270934,0.14393 q -0.05927,-0.16933 -0.198966,-0.26246 -0.135467,-0.0931 -0.338666,-0.0931 -0.148167,0 -0.2667,0.0508 -0.1143,0.0466 -0.194733,0.13547 -0.08043,0.0889 -0.122767,0.21167 -0.0381,0.12276 -0.0381,0.2667 v 0.37253 q 0,0.14393 0.0381,0.2667 0.04233,0.12277 0.122767,0.21167 0.08043,0.0889 0.198966,0.1397 0.118533,0.0466 0.270933,0.0466 0.220133,0 0.364067,-0.1016 0.143933,-0.1016 0.228599,-0.2794 l 0.2413,0.1651 q -0.09737,0.22014 -0.3048,0.36407 -0.203199,0.14393 -0.533399,0.14393 z"
           style="font-size:4.23333px;line-height:1.25;font-family:'IBM Plex Mono';-inkscape-font-specification:'IBM Plex Mono, Normal';baseline-shift:baseline;stroke-width:0.264583;stroke-linejoin:round"
           id="path20471" />
        <path
           d="m 26.050228,145.15825 q -0.228599,0 -0.414866,-0.0804 -0.182033,-0.0804 -0.313266,-0.2286 -0.127,-0.1524 -0.194733,-0.35983 -0.06773,-0.21167 -0.06773,-0.47414 0,-0.25823 0.06773,-0.4699 0.06773,-0.21166 0.194733,-0.35983 0.131233,-0.1524 0.313266,-0.23283 0.186267,-0.0804 0.414866,-0.0804 0.2286,0 0.410633,0.0804 0.186267,0.0804 0.313267,0.23283 0.131233,0.14817 0.198966,0.35983 0.06773,0.21167 0.06773,0.4699 0,0.26247 -0.06773,0.47414 -0.06773,0.20743 -0.198966,0.35983 -0.127,0.14817 -0.313267,0.2286 -0.182033,0.0804 -0.410633,0.0804 z m 0,-0.2921 q 0.283634,0 0.4572,-0.16933 0.173567,-0.16933 0.173567,-0.52493 v -0.31327 q 0,-0.3556 -0.173567,-0.52493 -0.173566,-0.16934 -0.4572,-0.16934 -0.283633,0 -0.457199,0.16934 -0.173567,0.16933 -0.173567,0.52493 v 0.31327 q 0,0.3556 0.173567,0.52493 0.173566,0.16933 0.457199,0.16933 z"
           style="font-size:4.23333px;line-height:1.25;font-family:'IBM Plex Mono';-inkscape-font-specification:'IBM Plex Mono, Normal';baseline-shift:baseline;stroke-width:0.264583;stroke-linejoin:round"
           id="path20473" />
        <path
           d="m 27.735095,145.10745 v -2.1844 h 0.338667 v 0.3556 h 0.01693 q 0.03387,-0.0804 0.08467,-0.1524 0.0508,-0.0762 0.122766,-0.13123 0.0762,-0.055 0.1778,-0.0889 0.1016,-0.0339 0.237066,-0.0339 0.3429,0 0.550333,0.22014 0.207434,0.2159 0.207434,0.61383 v 1.40123 h -0.338667 v -1.34196 q 0,-0.30057 -0.131233,-0.4445 -0.131233,-0.14817 -0.385233,-0.14817 -0.1016,0 -0.198967,0.0254 -0.09737,0.0254 -0.173566,0.0762 -0.0762,0.0508 -0.122767,0.13123 -0.04657,0.0804 -0.04657,0.18627 v 1.51553 z"
           style="font-size:4.23333px;line-height:1.25;font-family:'IBM Plex Mono';-inkscape-font-specification:'IBM Plex Mono, Normal';baseline-shift:baseline;stroke-width:0.264583;stroke-linejoin:round"
           id="path20475" />
        <path
           d="m 31.206427,145.15825 q -0.237066,0 -0.423333,-0.0804 -0.182033,-0.0847 -0.309033,-0.23283 -0.127,-0.14817 -0.194733,-0.35984 -0.0635,-0.21166 -0.0635,-0.4699 0,-0.25823 0.06773,-0.4699 0.06773,-0.21166 0.194734,-0.35983 0.127,-0.1524 0.309033,-0.23283 0.182033,-0.0804 0.414866,-0.0804 0.3175,0 0.516466,0.1397 0.198967,0.1397 0.2921,0.36407 l -0.270933,0.14393 q -0.05927,-0.16933 -0.198967,-0.26246 -0.135466,-0.0931 -0.338666,-0.0931 -0.148167,0 -0.2667,0.0508 -0.1143,0.0466 -0.194733,0.13547 -0.08043,0.0889 -0.122766,0.21167 -0.0381,0.12276 -0.0381,0.2667 v 0.37253 q 0,0.14393 0.0381,0.2667 0.04233,0.12277 0.122766,0.21167 0.08043,0.0889 0.198967,0.1397 0.118533,0.0466 0.270933,0.0466 0.220133,0 0.364066,-0.1016 0.143933,-0.1016 0.2286,-0.2794 l 0.2413,0.1651 q -0.09737,0.22014 -0.3048,0.36407 -0.2032,0.14393 -0.5334,0.14393 z"
           style="font-size:4.23333px;line-height:1.25;font-family:'IBM Plex Mono';-inkscape-font-specification:'IBM Plex Mono, Normal';baseline-shift:baseline;stroke-width:0.264583;stroke-linejoin:round"
           id="path20477" />
        <path
           d="m 34.495726,145.10745 q -0.198966,0 -0.283633,-0.1016 -0.08467,-0.1016 -0.105833,-0.254 h -0.02117 q -0.07197,0.1905 -0.232833,0.30057 -0.156633,0.10583 -0.423333,0.10583 -0.3429,0 -0.546099,-0.1778 -0.2032,-0.1778 -0.2032,-0.48683 0,-0.3048 0.220133,-0.4699 0.224366,-0.1651 0.719666,-0.1651 h 0.465666 v -0.2159 q 0,-0.2413 -0.135466,-0.35983 -0.135467,-0.12277 -0.385233,-0.12277 -0.220133,0 -0.359833,0.0889 -0.1397,0.0847 -0.224367,0.23283 l -0.2286,-0.16933 q 0.04233,-0.0847 0.1143,-0.1651 0.07197,-0.0804 0.1778,-0.1397 0.105833,-0.0635 0.2413,-0.0974 0.135466,-0.0381 0.300566,-0.0381 0.385233,0 0.6096,0.19474 0.2286,0.19473 0.2286,0.54186 v 1.20227 h 0.304799 v 0.29633 z m -1.007532,-0.23283 q 0.131233,0 0.237066,-0.0296 0.110067,-0.0339 0.1905,-0.0847 0.08043,-0.055 0.122767,-0.127 0.04657,-0.0762 0.04657,-0.16087 v -0.35983 h -0.465666 q -0.3048,0 -0.4445,0.0847 -0.1397,0.0847 -0.1397,0.24553 v 0.0889 q 0,0.16933 0.118534,0.25823 0.122766,0.0847 0.334433,0.0847 z"
           style="font-size:4.23333px;line-height:1.25;font-family:'IBM Plex Mono';-inkscape-font-specification:'IBM Plex Mono, Normal';baseline-shift:baseline;stroke-width:0.264583;stroke-linejoin:round"
           id="path20479" />
        <path
           d="m 36.316059,145.10745 q -0.249766,0 -0.3683,-0.1397 -0.114299,-0.1397 -0.114299,-0.35983 v -1.397 h -0.728133 v -0.28787 h 0.541866 q 0.110067,0 0.1524,-0.0423 0.04657,-0.0466 0.04657,-0.15663 v -0.5715 h 0.325966 v 0.77046 h 0.994832 v 0.28787 h -0.994832 v 1.60867 h 0.994832 v 0.28786 z"
           style="font-size:4.23333px;line-height:1.25;font-family:'IBM Plex Mono';-inkscape-font-specification:'IBM Plex Mono, Normal';baseline-shift:baseline;stroke-width:0.264583;stroke-linejoin:round"
           id="path20481" />
      </g>
      <g
         id="g29133">
        <path
           style="fill:none;stroke:#000000;stroke-width:0.264583px;stroke-linecap:butt;stroke-linejoin:miter;stroke-opacity:1"
           d="m 29.819712,145.72577 7.748161,2.59772"
           id="path14752" />
        <path
           style="fill:none;stroke:#000000;stroke-width:0.264583px;stroke-linecap:butt;stroke-linejoin:miter;stroke-opacity:1"
           d="m 29.932038,145.72577 -7.748161,2.59772"
           id="path14754" />
      </g>
      <g
         id="g29118">
        <path
           style="fill:none;stroke:#000000;stroke-width:0.264583px;stroke-linecap:butt;stroke-linejoin:miter;stroke-opacity:1"
           d="m 22.164135,139.6781 7.748161,2.59772"
           id="path14750" />
        <path
           style="fill:none;stroke:#000000;stroke-width:0.264583px;stroke-linecap:butt;stroke-linejoin:miter;stroke-opacity:1"
           d="m 22.249739,139.6781 -7.748161,2.59772"
           id="path14768" />
      </g>
      <g
         id="g29121">
        <path
           d="m 13.050038,143.37503 q 0.309033,0 0.461433,-0.13547 0.156633,-0.1397 0.156633,-0.3556 v -0.0296 q 0,-0.23707 -0.1524,-0.3556 -0.148166,-0.11853 -0.389466,-0.11853 -0.237066,0 -0.385233,0.10583 -0.143933,0.1016 -0.237066,0.27093 l -0.2667,-0.2032 q 0.05503,-0.0889 0.135466,-0.17356 0.08043,-0.0889 0.186267,-0.15664 0.110066,-0.0677 0.249766,-0.11006 0.143934,-0.0423 0.325967,-0.0423 0.1905,0 0.355599,0.0508 0.1651,0.0466 0.287867,0.14394 0.122766,0.0931 0.1905,0.23283 0.07197,0.1397 0.07197,0.3175 0,0.14393 -0.04657,0.25823 -0.04233,0.1143 -0.122767,0.19897 -0.0762,0.0847 -0.182033,0.14393 -0.105833,0.0593 -0.224367,0.0889 v 0.0169 q 0.122767,0.0254 0.237067,0.0847 0.1143,0.055 0.2032,0.14817 0.0889,0.0889 0.1397,0.22013 0.05503,0.127 0.05503,0.2921 0,0.1905 -0.0762,0.35137 -0.07197,0.15663 -0.207433,0.27093 -0.131233,0.11007 -0.321733,0.17357 -0.186267,0.0635 -0.414867,0.0635 -0.194733,0 -0.347133,-0.0423 -0.148166,-0.0423 -0.266699,-0.1143 -0.1143,-0.072 -0.2032,-0.16086 -0.08467,-0.0889 -0.1524,-0.18627 l 0.2667,-0.2032 q 0.05927,0.0889 0.122766,0.16087 0.0635,0.072 0.143933,0.127 0.08467,0.0508 0.1905,0.0804 0.105834,0.0296 0.245533,0.0296 0.313267,0 0.478367,-0.14393 0.169333,-0.14393 0.169333,-0.41063 v -0.0339 q 0,-0.26246 -0.1651,-0.4064 -0.160866,-0.14393 -0.486833,-0.14393 h -0.351366 v -0.3048 z"
           style="font-size:4.23333px;line-height:1.25;font-family:'IBM Plex Mono';-inkscape-font-specification:'IBM Plex Mono, Normal';baseline-shift:baseline;stroke-width:0.264583;stroke-linejoin:round"
           id="path20502" />
      </g>
      <g
         id="g29141">
        <path
           d="m 18.827237,151.39727 h -0.01693 q -0.211667,0.4064 -0.6731,0.4064 -0.402166,0 -0.630766,-0.30057 -0.224366,-0.30056 -0.224366,-0.84243 0,-0.54187 0.224366,-0.84243 0.2286,-0.30057 0.630766,-0.30057 0.461433,0 0.6731,0.4064 h 0.01693 v -1.30387 h 0.338666 v 3.13267 h -0.338666 z m -0.5588,0.10583 q 0.1143,0 0.2159,-0.0296 0.1016,-0.0296 0.1778,-0.0847 0.0762,-0.0593 0.118533,-0.1397 0.04657,-0.0847 0.04657,-0.19473 v -0.7874 q 0,-0.11007 -0.04657,-0.1905 -0.04233,-0.0847 -0.118533,-0.1397 -0.0762,-0.0593 -0.1778,-0.0889 -0.1016,-0.0296 -0.2159,-0.0296 -0.296333,0 -0.461432,0.18203 -0.160867,0.1778 -0.160867,0.47413 v 0.37254 q 0,0.29633 0.160867,0.47836 0.165099,0.1778 0.461432,0.1778 z"
           style="font-size:4.23333px;line-height:1.25;font-family:'IBM Plex Mono';-inkscape-font-specification:'IBM Plex Mono, Normal';baseline-shift:baseline;stroke-width:0.264583;stroke-linejoin:round"
           id="path20484" />
        <path
           d="m 19.894038,151.465 h 0.639232 v -1.60866 h -0.639232 v -0.28787 h 0.977899 v 0.55033 h 0.02117 q 0.06773,-0.25823 0.253999,-0.40216 0.1905,-0.14817 0.4826,-0.14817 h 0.3048 v 0.33867 h -0.410633 q -0.2921,0 -0.474133,0.16933 -0.1778,0.16933 -0.1778,0.4445 v 0.94403 h 0.846666 v 0.28787 h -1.824568 z"
           style="font-size:4.23333px;line-height:1.25;font-family:'IBM Plex Mono';-inkscape-font-specification:'IBM Plex Mono, Normal';baseline-shift:baseline;stroke-width:0.264583;stroke-linejoin:round"
           id="path20486" />
        <path
           d="m 24.203569,151.75287 q -0.198966,0 -0.283633,-0.1016 -0.08467,-0.1016 -0.105833,-0.254 h -0.02117 q -0.07197,0.1905 -0.232833,0.30057 -0.156633,0.10583 -0.423333,0.10583 -0.3429,0 -0.5461,-0.1778 -0.203199,-0.1778 -0.203199,-0.48683 0,-0.3048 0.220133,-0.4699 0.224366,-0.1651 0.719666,-0.1651 h 0.465666 v -0.2159 q 0,-0.2413 -0.135467,-0.35984 -0.135466,-0.12276 -0.385233,-0.12276 -0.220133,0 -0.359833,0.0889 -0.139699,0.0847 -0.224366,0.23283 l -0.2286,-0.16933 q 0.04233,-0.0847 0.1143,-0.1651 0.07197,-0.0804 0.1778,-0.1397 0.105833,-0.0635 0.2413,-0.0974 0.135466,-0.0381 0.300566,-0.0381 0.385233,0 0.6096,0.19473 0.228599,0.19474 0.228599,0.54187 v 1.20227 h 0.3048 v 0.29633 z m -1.007532,-0.23283 q 0.131233,0 0.237066,-0.0296 0.110067,-0.0339 0.1905,-0.0847 0.08043,-0.055 0.122766,-0.127 0.04657,-0.0762 0.04657,-0.16087 v -0.35983 h -0.465666 q -0.3048,0 -0.4445,0.0847 -0.1397,0.0847 -0.1397,0.24554 v 0.0889 q 0,0.16933 0.118533,0.25823 0.122767,0.0847 0.334434,0.0847 z"
           style="font-size:4.23333px;line-height:1.25;font-family:'IBM Plex Mono';-inkscape-font-specification:'IBM Plex Mono, Normal';baseline-shift:baseline;stroke-width:0.264583;stroke-linejoin:round"
           id="path20488" />
        <path
           d="m 24.77507,149.56847 h 0.300567 l 0.249766,1.88807 h 0.0381 l 0.372533,-1.88807 h 0.372533 l 0.372533,1.88807 h 0.0381 l 0.249766,-1.88807 h 0.2921 l -0.334433,2.1844 h -0.440266 l -0.347133,-1.8288 h -0.03387 l -0.355599,1.8288 H 25.1095 Z"
           style="font-size:4.23333px;line-height:1.25;font-family:'IBM Plex Mono';-inkscape-font-specification:'IBM Plex Mono, Normal';baseline-shift:baseline;stroke-width:0.264583;stroke-linejoin:round"
           id="path20490" />
        <path
           style="fill:none;stroke:#000000;stroke-width:0.264583px;stroke-linecap:butt;stroke-linejoin:miter;stroke-opacity:1"
           d="m 22.165129,152.67735 0.0037,2.59772"
           id="path14792"
           sodipodi:nodetypes="cc" />
        <path
           style="fill:none;stroke:#000000;stroke-width:0.7;stroke-linecap:butt;stroke-linejoin:miter;stroke-dasharray:none;stroke-opacity:1"
           d="m 21.13177,160.13274 2.263815,-4.73237"
           id="path3473" />
      </g>
      <g
         id="g29149">
        <path
           d="m 34.211346,151.39727 h -0.01693 q -0.211666,0.4064 -0.673099,0.4064 -0.402167,0 -0.630766,-0.30057 -0.224367,-0.30056 -0.224367,-0.84243 0,-0.54187 0.224367,-0.84243 0.228599,-0.30057 0.630766,-0.30057 0.461433,0 0.673099,0.4064 h 0.01693 v -1.30387 h 0.338667 v 3.13267 h -0.338667 z m -0.558799,0.10583 q 0.1143,0 0.2159,-0.0296 0.1016,-0.0296 0.1778,-0.0847 0.0762,-0.0593 0.118533,-0.1397 0.04657,-0.0847 0.04657,-0.19473 v -0.7874 q 0,-0.11007 -0.04657,-0.1905 -0.04233,-0.0847 -0.118533,-0.1397 -0.0762,-0.0593 -0.1778,-0.0889 -0.1016,-0.0296 -0.2159,-0.0296 -0.296333,0 -0.461433,0.18203 -0.160867,0.1778 -0.160867,0.47413 v 0.37254 q 0,0.29633 0.160867,0.47836 0.1651,0.1778 0.461433,0.1778 z"
           style="font-size:4.23333px;line-height:1.25;font-family:'IBM Plex Mono';-inkscape-font-specification:'IBM Plex Mono, Normal';baseline-shift:baseline;stroke-width:0.264583;stroke-linejoin:round"
           id="path20493" />
        <path
           d="m 35.278147,151.465 h 0.639233 v -1.60866 h -0.639233 v -0.28787 h 0.977899 v 0.55033 h 0.02117 q 0.06773,-0.25823 0.254,-0.40216 0.1905,-0.14817 0.482599,-0.14817 h 0.3048 v 0.33867 h -0.410633 q -0.2921,0 -0.474133,0.16933 -0.1778,0.16933 -0.1778,0.4445 v 0.94403 h 0.846666 v 0.28787 H 35.27815 Z"
           style="font-size:4.23333px;line-height:1.25;font-family:'IBM Plex Mono';-inkscape-font-specification:'IBM Plex Mono, Normal';baseline-shift:baseline;stroke-width:0.264583;stroke-linejoin:round"
           id="path20495" />
        <path
           d="m 39.587679,151.75287 q -0.198967,0 -0.283634,-0.1016 -0.08467,-0.1016 -0.105833,-0.254 h -0.02117 q -0.07197,0.1905 -0.232834,0.30057 -0.156633,0.10583 -0.423333,0.10583 -0.342899,0 -0.546099,-0.1778 -0.2032,-0.1778 -0.2032,-0.48683 0,-0.3048 0.220133,-0.4699 0.224367,-0.1651 0.719666,-0.1651 h 0.465667 v -0.2159 q 0,-0.2413 -0.135467,-0.35984 -0.135467,-0.12276 -0.385233,-0.12276 -0.220133,0 -0.359833,0.0889 -0.1397,0.0847 -0.224367,0.23283 l -0.228599,-0.16933 q 0.04233,-0.0847 0.1143,-0.1651 0.07197,-0.0804 0.177799,-0.1397 0.105834,-0.0635 0.2413,-0.0974 0.135467,-0.0381 0.300567,-0.0381 0.385233,0 0.609599,0.19473 0.2286,0.19474 0.2286,0.54187 v 1.20227 h 0.3048 v 0.29633 z m -1.007533,-0.23283 q 0.131233,0 0.237067,-0.0296 0.110066,-0.0339 0.190499,-0.0847 0.08043,-0.055 0.122767,-0.127 0.04657,-0.0762 0.04657,-0.16087 v -0.35983 h -0.465667 q -0.304799,0 -0.444499,0.0847 -0.1397,0.0847 -0.1397,0.24554 v 0.0889 q 0,0.16933 0.118533,0.25823 0.122767,0.0847 0.334433,0.0847 z"
           style="font-size:4.23333px;line-height:1.25;font-family:'IBM Plex Mono';-inkscape-font-specification:'IBM Plex Mono, Normal';baseline-shift:baseline;stroke-width:0.264583;stroke-linejoin:round"
           id="path20497" />
        <path
           d="m 40.15918,149.56847 h 0.300566 l 0.249767,1.88807 h 0.0381 l 0.372533,-1.88807 h 0.372533 l 0.372533,1.88807 h 0.0381 l 0.249766,-1.88807 h 0.2921 l -0.334433,2.1844 h -0.440267 l -0.347133,-1.8288 h -0.03387 l -0.3556,1.8288 h -0.440266 z"
           style="font-size:4.23333px;line-height:1.25;font-family:'IBM Plex Mono';-inkscape-font-specification:'IBM Plex Mono, Normal';baseline-shift:baseline;stroke-width:0.264583;stroke-linejoin:round"
           id="path20499" />
        <path
           style="fill:none;stroke:#000000;stroke-width:0.264583px;stroke-linecap:butt;stroke-linejoin:miter;stroke-opacity:1"
           d="m 37.551688,152.97412 0.0037,2.59772"
           id="path15918"
           sodipodi:nodetypes="cc" />
        <path
           style="fill:none;stroke:#000000;stroke-width:0.7;stroke-linecap:butt;stroke-linejoin:miter;stroke-dasharray:none;stroke-opacity:1"
           d="m 38.782144,160.42951 -2.263815,-4.73237"
           id="path15920" />
      </g>
    </g>
  </g>
</svg>
